<?xml version="1.0" encoding="utf-8"?>
<!-- Generator: Adobe Illustrator 16.0.0, SVG Export Plug-In . SVG Version: 6.00 Build 0)  -->
<!DOCTYPE svg PUBLIC "-//W3C//DTD SVG 1.1//EN" "http://www.w3.org/Graphics/SVG/1.1/DTD/svg11.dtd">
<svg version="1.1" id="圖層_1" xmlns="http://www.w3.org/2000/svg" xmlns:xlink="http://www.w3.org/1999/xlink" x="0px" y="0px"
	 width="186.166px" height="39.029px" viewBox="0 0 186.166 39.029" enable-background="new 0 0 186.166 39.029"
	 xml:space="preserve">
<g>
	<g>
		<g>
			<path fill="#FFFFFF" d="M11.545,14.065H9.779v-4.06h1.68c0.843,0,1.295,0.473,1.295,1.177c0,0.459-0.321,0.714-0.447,0.801
				c0.165,0.104,0.504,0.314,0.504,0.886C12.811,13.642,12.267,14.065,11.545,14.065z M11.396,10.901h-0.625v0.661h0.625
				c0.271,0,0.36-0.17,0.36-0.33C11.756,11.071,11.667,10.901,11.396,10.901z M11.447,12.457h-0.675v0.712h0.675
				c0.273,0,0.366-0.188,0.366-0.359S11.72,12.457,11.447,12.457z"/>
			<path fill="#FFFFFF" d="M14.981,14.065v-0.251c-0.187,0.188-0.467,0.283-0.711,0.283c-0.291,0-0.525-0.097-0.694-0.263
				c-0.259-0.263-0.304-0.551-0.304-0.876v-1.962h0.934v1.836c0,0.353,0.252,0.423,0.378,0.423c0.124,0,0.375-0.07,0.375-0.423
				v-1.836h0.936v3.068H14.981z"/>
			<path fill="#FFFFFF" d="M17.494,14.098c-0.461,0-0.911-0.021-1.333-0.444l0.605-0.604c0.257,0.257,0.588,0.257,0.746,0.257
				c0.139,0,0.4-0.038,0.4-0.199c0-0.086-0.043-0.176-0.223-0.193l-0.474-0.044c-0.528-0.054-0.889-0.292-0.889-0.893
				c0-0.676,0.609-1.014,1.22-1.014c0.501,0,0.905,0.076,1.208,0.378l-0.577,0.576c-0.152-0.154-0.41-0.184-0.649-0.184
				c-0.227,0-0.3,0.108-0.3,0.177c0,0.034-0.013,0.147,0.199,0.17l0.474,0.047c0.643,0.063,0.922,0.443,0.922,0.933
				C18.823,13.785,18.208,14.098,17.494,14.098z"/>
			<path fill="#FFFFFF" d="M19.187,10.685V9.97h0.933v0.715H19.187z M19.187,14.065v-2.948h0.933v2.948H19.187z"/>
			<path fill="#FFFFFF" d="M22.373,14.065v-1.837c0-0.353-0.248-0.422-0.375-0.422c-0.125,0-0.375,0.07-0.375,0.422v1.837h-0.936
				v-3.068H21.6v0.252c0.188-0.188,0.466-0.286,0.714-0.286c0.291,0,0.523,0.098,0.686,0.264c0.265,0.261,0.309,0.553,0.309,0.877
				v1.962H22.373z"/>
			<path fill="#FFFFFF" d="M24.624,12.832c0,0.251,0.197,0.479,0.543,0.479c0.325,0,0.469-0.093,0.632-0.258l0.559,0.561
				c-0.314,0.313-0.621,0.482-1.191,0.482c-0.679,0-1.462-0.243-1.462-1.567c0-1.003,0.573-1.567,1.376-1.567
				c0.889,0,1.378,0.65,1.378,1.455v0.415H24.624z M25.485,11.971c-0.057-0.129-0.183-0.238-0.404-0.238
				c-0.223,0-0.346,0.108-0.406,0.238c-0.037,0.081-0.051,0.167-0.051,0.24h0.914C25.538,12.138,25.527,12.052,25.485,11.971z"/>
			<path fill="#FFFFFF" d="M27.928,14.098c-0.466,0-0.914-0.021-1.336-0.444l0.605-0.604c0.256,0.257,0.587,0.257,0.748,0.257
				c0.136,0,0.399-0.038,0.399-0.199c0-0.086-0.041-0.176-0.224-0.193l-0.472-0.044c-0.533-0.054-0.892-0.292-0.892-0.893
				c0-0.676,0.613-1.014,1.223-1.014c0.501,0,0.904,0.076,1.208,0.378l-0.578,0.576c-0.153-0.154-0.408-0.184-0.649-0.184
				c-0.227,0-0.301,0.108-0.301,0.177c0,0.034-0.01,0.147,0.201,0.17l0.473,0.047c0.644,0.063,0.924,0.443,0.924,0.933
				C29.255,13.785,28.638,14.098,27.928,14.098z"/>
			<path fill="#FFFFFF" d="M30.623,14.098c-0.462,0-0.914-0.021-1.336-0.444l0.608-0.604c0.256,0.257,0.584,0.257,0.742,0.257
				c0.139,0,0.403-0.038,0.403-0.199c0-0.086-0.042-0.176-0.222-0.193l-0.478-0.044c-0.53-0.054-0.887-0.292-0.887-0.893
				c0-0.676,0.612-1.014,1.221-1.014c0.501,0,0.904,0.076,1.208,0.378l-0.575,0.576c-0.157-0.154-0.413-0.184-0.649-0.184
				c-0.227,0-0.305,0.108-0.305,0.177c0,0.034-0.013,0.147,0.201,0.17l0.471,0.047c0.646,0.063,0.926,0.443,0.926,0.933
				C31.951,13.785,31.336,14.098,30.623,14.098z"/>
			<path fill="#FFFFFF" d="M10.934,19.115c-0.622,0-1.127-0.114-1.537-0.535l0.639-0.639c0.21,0.211,0.58,0.286,0.904,0.286
				c0.393,0,0.583-0.132,0.583-0.364c0-0.098-0.022-0.179-0.082-0.242c-0.05-0.052-0.136-0.091-0.269-0.106l-0.489-0.07
				c-0.358-0.05-0.633-0.171-0.815-0.356c-0.187-0.195-0.277-0.468-0.277-0.817c0-0.739,0.557-1.282,1.48-1.282
				c0.581,0,1.022,0.139,1.369,0.485l-0.627,0.626c-0.256-0.257-0.592-0.239-0.772-0.239c-0.345,0-0.489,0.2-0.489,0.376
				c0,0.053,0.018,0.127,0.082,0.188c0.05,0.051,0.136,0.102,0.278,0.119l0.492,0.069c0.363,0.051,0.625,0.164,0.794,0.337
				c0.218,0.209,0.305,0.511,0.305,0.888C12.502,18.664,11.788,19.115,10.934,19.115z"/>
			<path fill="#FFFFFF" d="M14.202,19.115c-0.532,0-1.381-0.228-1.381-1.567c0-1.337,0.849-1.568,1.381-1.568
				c0.426,0,0.757,0.145,1.009,0.396l-0.634,0.63c-0.119-0.117-0.22-0.182-0.375-0.182c-0.129,0-0.213,0.038-0.29,0.117
				c-0.109,0.116-0.155,0.315-0.155,0.606s0.046,0.489,0.155,0.604c0.076,0.079,0.161,0.117,0.29,0.117
				c0.155,0,0.256-0.062,0.375-0.18l0.634,0.632C14.959,18.973,14.628,19.115,14.202,19.115z"/>
			<path fill="#FFFFFF" d="M17.175,19.081v-1.858c0-0.331-0.239-0.397-0.357-0.397c-0.125,0-0.363,0.067-0.363,0.397v1.858h-0.932
				v-4.06h0.932v1.241c0.194-0.19,0.442-0.284,0.673-0.284c0.662,0,0.98,0.49,0.98,1.111v1.99L17.175,19.081L17.175,19.081z"/>
			<path fill="#FFFFFF" d="M20.847,18.722c-0.183,0.191-0.491,0.393-0.988,0.393c-0.493,0-0.802-0.201-0.984-0.393
				c-0.255-0.278-0.337-0.569-0.337-1.175c0-0.598,0.082-0.896,0.337-1.173c0.183-0.196,0.491-0.396,0.984-0.396
				c0.497,0,0.806,0.199,0.988,0.396c0.256,0.277,0.335,0.575,0.335,1.173C21.182,18.152,21.104,18.443,20.847,18.722z
				 M20.113,16.908c-0.06-0.058-0.138-0.084-0.254-0.084c-0.111,0-0.19,0.026-0.25,0.084c-0.12,0.12-0.135,0.337-0.135,0.639
				c0,0.304,0.015,0.521,0.135,0.639c0.06,0.057,0.139,0.084,0.25,0.084c0.116,0,0.195-0.027,0.254-0.084
				c0.119-0.118,0.135-0.335,0.135-0.639C20.249,17.245,20.232,17.029,20.113,16.908z"/>
			<path fill="#FFFFFF" d="M23.842,18.722c-0.186,0.191-0.494,0.393-0.988,0.393c-0.496,0-0.802-0.201-0.987-0.393
				c-0.259-0.278-0.335-0.569-0.335-1.175c0-0.598,0.076-0.896,0.335-1.173c0.186-0.196,0.491-0.396,0.987-0.396
				c0.494,0,0.803,0.199,0.988,0.396c0.256,0.277,0.332,0.575,0.332,1.173C24.174,18.152,24.098,18.443,23.842,18.722z
				 M23.103,16.908c-0.057-0.058-0.136-0.084-0.249-0.084c-0.115,0-0.195,0.026-0.25,0.084c-0.121,0.12-0.14,0.337-0.14,0.639
				c0,0.304,0.019,0.521,0.14,0.639c0.054,0.057,0.134,0.084,0.25,0.084c0.113,0,0.192-0.027,0.249-0.084
				c0.122-0.118,0.139-0.335,0.139-0.639C23.241,17.245,23.225,17.029,23.103,16.908z"/>
			<path fill="#FFFFFF" d="M25.555,19.081c-0.677,0-0.95-0.484-0.95-0.904v-3.154h0.934v3.084c0,0.12,0.061,0.188,0.187,0.188h0.325
				v0.786H25.555z"/>
		</g>
		<g>
			<path fill="#FFFFFF" d="M22.664,35.981l-1.052-1.735c-0.057-0.091-3.179-4.67-15.343-4.67H5V2.095l1.349-0.01
				c0.772,0,4.815,0.034,8.783,0.701c3.644,0.612,6.169,1.601,7.561,2.952c1.391-1.353,3.916-2.34,7.563-2.952
				c3.97-0.667,8.008-0.701,8.782-0.701l1.347,0.01v27.479h-1.267c-12.223,0-15.315,4.627-15.345,4.672L22.664,35.981z
				 M7.535,27.058c9.066,0.234,13.369,2.966,15.158,4.623c1.79-1.657,6.094-4.389,15.157-4.623V4.632
				C30.889,4.78,24.036,6.221,23.957,8.55h-2.529C21.35,6.221,14.495,4.78,7.535,4.632V27.058z"/>
			<polygon fill="#FFFFFF" points="10.391,25.739 14.334,22.204 22.1,28.596 37.854,13.653 40.051,15.368 22.316,37.151 			"/>
		</g>
	</g>
	<g>
		<g>
			<g>
				<g>
					<path fill="#FFFFFF" d="M52.108,20.956l0.744,4.191l0.064,0.346l0.347-0.058l1.04-0.175l0.358-0.056l-0.067-0.357l-0.751-4.26
						l-0.064-0.372l-0.366,0.088l-1.034,0.243l-0.329,0.077L52.108,20.956z"/>
					<path fill="#FFFFFF" d="M61.402,21.318h5.497h0.354v-0.355v-1.021v-0.354h-0.354H55.072H54.72v0.354v1.021v0.355h0.352h5.273
						l-0.357-0.355v5.5l0.357-0.358h-6.05h-0.358v0.358v1.094v0.354h0.358h13.289h0.358v-0.354v-1.094v-0.358h-0.358h-6.182
						l0.356,0.358v-5.5L61.402,21.318z"/>
					<path fill="#FFFFFF" d="M76.373,22.612l-2.779,1.104l0.486,0.331v-7.065l-0.356,0.357h2.711h0.36v-0.357v-1.016v-0.357h-0.36
						h-2.711l0.356,0.357V9.814l-0.356,0.357H76.6h0.355V9.814V8.801V8.442H76.6h-6.766h-0.357v0.359v1.013v0.357h0.357h2.822
						l-0.354-0.357v6.151l0.354-0.357h-2.822h-0.357v0.357v1.016v0.357h0.357h2.822l-0.354-0.357v7.397l0.262-0.341l-2.894,0.818
						l-0.387,0.117l0.158,0.37l0.405,0.947l0.121,0.284l0.299-0.076c3.204-0.826,5.499-1.603,6.826-2.31l0.296-0.166l-0.136-0.298
						l-0.425-0.933l-0.136-0.308L76.373,22.612z"/>
					<path fill="#FFFFFF" d="M53.779,19.614l0.997-0.257l0.356-0.092l-0.099-0.352c-0.205-0.725-0.681-1.985-1.509-3.974
						l-0.127-0.313l-0.315,0.111l-1.001,0.348l-0.363,0.127l0.154,0.353l0.701,1.618l-0.027-0.14v0.077l0.318-0.354l-4.163,0.413
						l0.304,0.593c2.187-2.443,3.621-4.779,4.266-6.954l0.101-0.343l-0.35-0.1l-1.005-0.283l-0.326-0.089l-0.107,0.322
						c-0.369,1.101-0.916,2.231-1.679,3.457l0.541-0.075l-1.715-1.532l0.073,0.438c0.882-1.578,1.543-2.927,1.967-3.996l0.123-0.311
						l-0.306-0.141l-0.937-0.442l-0.343-0.159L49.17,7.921c-0.561,1.392-1.151,2.646-1.753,3.724l0.509-0.125l-1.121-0.735
						l-0.302-0.198l-0.195,0.306l-0.54,0.868l-0.2,0.308l0.316,0.188c1.128,0.665,2.273,1.593,3.508,2.827l-0.038-0.462
						c-0.738,1.022-1.476,1.955-2.26,2.851l0.236-0.123l-1.216,0.104l-0.411,0.034l0.096,0.402l0.239,0.995l0.072,0.302l0.31-0.028
						l3.543-0.353l-0.389-0.354v9.766v0.354h0.357h1.056h0.353v-0.354v-9.855l-0.321,0.354l2.338-0.243l-0.377-0.244l0.368,1.154
						l0.095,0.321L53.779,19.614z"/>
					<path fill="#FFFFFF" d="M84.172,23.295h5.939h0.356v-0.351v-1.029v-0.354h-0.356h-5.939l0.356,0.354v-2.853v-0.355h-0.356
						h-1.056h-0.362v0.355v2.853l0.362-0.354h-5.627h-0.358v0.354v1.029v0.351h0.358h5.627l-0.362-0.351v3.517l0.362-0.358h-6.708
						h-0.359v0.358v1.094v0.354h0.359h14.528h0.351v-0.354v-1.094v-0.358h-0.351h-6.765l0.356,0.358v-3.517L84.172,23.295z"/>
					<path fill="#FFFFFF" d="M105.403,14.74c-0.498-1.44-0.795-2.859-0.875-4.223c0,0.022,0-0.203,0-0.203
						c0,0.015,0.048-1.005,0.048-1.005c0-0.014,0-1.603,0-1.603V7.354h-0.356h-1.414h-0.353v0.354V9.37
						c0,6.032-1.685,10.55-5.154,13.809c-1.218,1.223-2.729,2.043-4.442,2.912l-0.388,0.197l0.271,0.341l0.842,1.056l0.196,0.242
						l0.265-0.164c3.36-2.029,5.408-3.766,6.854-5.797c1.582-2.361,2.582-4.626,3.141-7.123l0.021-0.099l-0.035-0.104l-0.072-0.201
						l-0.678,0.214c0.904,3.446,3.008,6.722,6.623,10.308l0.012,0.014l0.014,0.008l3.105,2.658l0.221,0.188l0.23-0.178l1.149-0.886
						l0.354-0.279l-0.352-0.281C109.58,22.127,106.646,18.487,105.403,14.74z"/>
					<path fill="#FFFFFF" d="M66.37,11.193l-0.958-0.422l-0.382-0.17L64.92,11c-0.341,1.264-0.849,2.314-1.545,3.21
						c-0.249,0.333-0.239,0.697,0.022,0.975c0.655,0.735,1.328,1.843,2.056,3.374l0.176,0.361l0.337-0.211l0.902-0.556l0.291-0.182
						l-0.167-0.299c-0.868-1.536-1.57-2.605-2.029-3.087c0.035,0.025,0.045,0.132,0.007,0.18c0,0,0,0,0.004-0.004l0.018-0.017
						l0.013-0.023c0.539-0.825,1.056-1.861,1.552-3.067l0.132-0.317L66.37,11.193z"/>
					<path fill="#FFFFFF" d="M45.763,26.872l1.023,0.272l0.318,0.088l0.108-0.306c0.872-2.378,1.393-4.337,1.598-5.989l0.039-0.327
						l-0.319-0.064l-1.05-0.218l-0.375-0.079l-0.055,0.382c-0.188,1.492-0.704,3.437-1.527,5.774l-0.128,0.361L45.763,26.872z"/>
					<path fill="#FFFFFF" d="M67.071,8.442H54.369h-0.354v0.359v1.002v0.359h0.354h12.702h0.353V9.803V8.801V8.442H67.071z"/>
					<path fill="#FFFFFF" d="M62.287,11.272l-0.91-0.527l-0.348-0.2l-0.155,0.373c-0.561,1.309-1.203,2.369-1.955,3.242l0.011-0.019
						c-0.48,0.493,0.067,1.153,0.302,1.438c0.561,0.626,1.227,1.68,1.938,3.066L61.354,19l0.331-0.217l0.871-0.577l0.286-0.188
						l-0.175-0.295c-0.896-1.477-1.637-2.536-2.201-3.144l0.016,0.02c0.044,0.054,0.053,0.152-0.004,0.22l0.004-0.012l0.013-0.006
						c0.477-0.596,1.104-1.594,1.92-3.044l0.173-0.307L62.287,11.272z"/>
					<path fill="#FFFFFF" d="M57.839,11.216L56.9,10.763l-0.36-0.178l-0.134,0.382c-0.471,1.35-1.057,2.46-1.744,3.302
						c-0.392,0.476,0.132,1.173,0.334,1.437c0.568,0.815,1.101,1.822,1.62,3.08l0.155,0.38l0.353-0.204l0.914-0.537l0.287-0.169
						l-0.151-0.301c-0.767-1.508-1.399-2.566-1.936-3.236c0.025,0.038,0.025,0.106,0.01,0.125c0.527-0.731,1.116-1.795,1.753-3.153
						l0.148-0.317L57.839,11.216z"/>
				</g>
				<g>
					<path fill="#FFFFFF" d="M88.456,11.557l3.231-3.825l-1.101-0.863l-3.646,3.41l-1.856-1.563L84.829,8.5h-7.292v3.763
						l-0.791,0.696l0.791,0.729v5.95h12.55v-6.705l-0.321-0.271L88.456,11.557z M88.277,13.771v0.114h-1.792l0.797-0.946
						L88.277,13.771z M85.613,11.523l-1.179,1.124v-2.111L85.613,11.523z M82.757,10.308v4.162l-0.108-0.075l-3.3-2.494v-1.593
						H82.757L82.757,10.308z M79.349,15.345l2.699,2.482h-2.699V15.345z M83.116,17.827l1.901-2.247l3.26-0.005v2.252H83.116z"/>
				</g>
			</g>
		</g>
		<g>
			<path fill="#FFFFFF" d="M136.304,8.932v1.952h-4.759l0.785,0.181c-0.093,0.155-0.246,0.247-0.562,0.267
				c-0.268,0.606-0.672,1.389-1.074,2.063h4.505v11.775c0,2.174-0.873,2.442-4.933,2.442c-0.092-0.607-0.424-1.5-0.719-2.063
				c0.852,0.043,1.709,0.07,2.334,0.07c1.188,0,1.277,0,1.277-0.496v-6.818c-0.316,0.334-0.738,0.45-1.391,0.45h-2.238
				c-1.822,0-2.225-0.471-2.225-2.085v-1.437h-2.513c-0.248,2.241-1.054,3.813-4.549,4.598c-0.16-0.402-0.563-1.03-0.923-1.394
				v9.174h-2.018V13.394h4.281c-0.223-0.717-0.58-1.614-0.941-2.286l1.119-0.224h-5.693V8.932h8.902V6.577l2.691,0.156
				c-0.023,0.203-0.158,0.314-0.514,0.383v1.815H136.304z M119.324,15.234v3.114c2.602-0.514,3.364-1.389,3.606-3.114H119.324z
				 M130.67,25.392h-6.885v1.323h-1.904V19.72h8.789V25.392z M123.537,13.394h4.868c0.361-0.739,0.763-1.704,1.033-2.51h-6.66
				c0.425,0.784,0.875,1.75,1.052,2.442L123.537,13.394z M128.742,21.333h-4.957v2.426h4.957V21.333z M131.502,17.163
				c0.424,0,0.515-0.092,0.582-0.784c0.224,0.179,0.672,0.335,1.076,0.468v-1.613h-4.019v1.437c0,0.423,0.092,0.493,0.631,0.493
				H131.502z"/>
			<path fill="#FFFFFF" d="M158.49,21.511v1.728h-8.882v2.247c0,1.902-0.807,2.105-4.799,2.105
				c-0.113-0.563-0.404-1.304-0.694-1.817c1.278,0.045,2.602,0.045,2.934,0.045c0.386-0.021,0.478-0.111,0.478-0.383v-2.197h-8.84
				v-1.728h8.84v-1.187l1.252,0.045c0.719-0.337,1.438-0.789,2.09-1.235h-8.188v-1.549h10.272l0.312-0.111l1.569,1.011
				c-0.09,0.133-0.271,0.202-0.472,0.226c-1.188,0.896-2.961,1.993-4.646,2.801H158.49z M140.862,16.286v2.78h-2.018v-4.373h1.771
				l-0.426-7.131l1.389,0.315c1.053-0.334,2.219-0.808,2.984-1.146l1.252,1.366c-0.066,0.069-0.18,0.115-0.287,0.115
				c-0.072,0-0.135-0.024-0.205-0.046c-0.76,0.268-2.018,0.627-3.049,0.896l0.045,0.766h3.188v1.368h-3.119l0.066,1.054h3.141v1.389
				h-3.074l0.068,1.054h12.02l0.113-1.054h-3.07v-1.389h3.183l0.09-1.054h-3.187V9.83h3.277l0.041-1.054h-3.404V7.386h5.49
				c-0.113,2.333-0.311,5.248-0.514,7.309h1.748v4.373h-2.109v-2.78L140.862,16.286L140.862,16.286z M151.199,7.363
				c-0.044,0.133-0.201,0.201-0.445,0.182c-0.271,0.334-0.608,0.671-0.985,0.982c0.469,0.337,0.873,0.653,1.162,0.943l-1.054,0.943
				c-0.289-0.293-0.713-0.651-1.211-1.012c-0.647,0.474-1.367,0.898-2.041,1.235c-0.224-0.273-0.737-0.718-1.051-0.943
				c0.646-0.292,1.295-0.648,1.926-1.075c-0.472-0.292-0.92-0.583-1.364-0.807l1.01-0.854c0.469,0.222,0.959,0.495,1.436,0.786
				c0.354-0.315,0.67-0.649,0.938-0.988L151.199,7.363z M151.429,11.13c-0.068,0.156-0.25,0.223-0.476,0.201
				c-0.289,0.358-0.647,0.719-1.056,1.077c0.494,0.356,0.943,0.717,1.258,1.029l-1.075,0.967c-0.313-0.335-0.765-0.717-1.276-1.099
				c-0.699,0.494-1.437,0.965-2.134,1.301c-0.248-0.27-0.739-0.719-1.073-0.965c0.672-0.291,1.368-0.695,2.018-1.166
				c-0.451-0.292-0.916-0.559-1.367-0.807l1.031-0.854c0.449,0.226,0.941,0.497,1.414,0.808c0.381-0.358,0.74-0.715,1.008-1.099
				L151.429,11.13z"/>
			<path fill="#FFFFFF" d="M166.931,7.476l1.368,0.715c-0.021,0.113-0.11,0.247-0.198,0.292c-0.515,1.747-1.322,4.083-2.043,5.896
				c1.569,1.772,2.131,3.253,2.131,4.645c0,3.453-2.217,3.363-3.814,3.297c-0.02-0.516-0.223-1.303-0.471-1.771
				c0.451,0.021,0.897,0.021,1.215,0.021c0.648,0,1.145-0.292,1.145-1.729c0-1.141-0.537-2.555-2.068-4.213
				c0.586-1.569,1.166-3.612,1.572-5.158h-2.442v18.121h-1.886V7.544h5.179L166.931,7.476z M177.492,24.565
				c0,0.622,0.069,0.691,0.478,0.691h1.204c0.429,0,0.519-0.336,0.563-2.691c0.404,0.363,1.234,0.674,1.791,0.834
				c-0.197,2.958-0.689,3.74-2.127,3.74h-1.775c-1.746,0-2.152-0.604-2.152-2.555v-5.336h-2.213
				c-0.297,3.969-1.127,6.793-5.541,8.318c-0.203-0.491-0.742-1.258-1.146-1.635c3.657-1.166,4.42-3.278,4.67-6.684h-2.787v-1.93
				h12.806v1.93h-3.769v5.316H177.492z M168.229,9.246h5.344V6.577l2.578,0.156c-0.023,0.182-0.18,0.314-0.521,0.361v2.151h5.563
				v4.395h-1.772V15.1h-9.483v-1.434h-1.709V9.246z M179.199,13.237v-2.155h-9.084v2.155H179.199z"/>
		</g>
	</g>
</g>
</svg>
