<?xml version="1.0" encoding="utf-8"?>
<!-- Generator: Adobe Illustrator 16.0.0, SVG Export Plug-In . SVG Version: 6.00 Build 0)  -->
<!DOCTYPE svg PUBLIC "-//W3C//DTD SVG 1.1//EN" "http://www.w3.org/Graphics/SVG/1.1/DTD/svg11.dtd">
<svg version="1.1" id="android" xmlns="http://www.w3.org/2000/svg" xmlns:xlink="http://www.w3.org/1999/xlink" x="0px" y="0px"
	 width="32px" height="32px" viewBox="0 0 32 32" enable-background="new 0 0 32 32" xml:space="preserve">
<path fill="#9F9F9F" d="M6.962,11.337c-0.43,0-0.796,0.15-1.097,0.45c-0.301,0.302-0.451,0.663-0.451,1.083v6.467
	c0,0.431,0.15,0.796,0.451,1.098c0.301,0.3,0.667,0.45,1.097,0.45c0.432,0,0.795-0.15,1.091-0.45
	c0.295-0.302,0.443-0.667,0.443-1.098V12.87c0-0.42-0.149-0.781-0.451-1.083C7.745,11.487,7.384,11.337,6.962,11.337L6.962,11.337z
	 M6.962,11.337"/>
<path fill="#9F9F9F" d="M19.414,5.533l1.066-1.97c0.07-0.131,0.046-0.231-0.074-0.302c-0.131-0.06-0.231-0.03-0.302,0.091
	l-1.081,1.984C18.07,4.917,17.062,4.706,16,4.706s-2.07,0.211-3.021,0.631l-1.083-1.984c-0.07-0.121-0.171-0.15-0.302-0.091
	c-0.12,0.072-0.145,0.17-0.074,0.302l1.068,1.97c-1.083,0.551-1.945,1.321-2.587,2.308c-0.642,0.988-0.962,2.067-0.962,3.241h13.907
	c0-1.173-0.32-2.252-0.963-3.241C21.343,6.854,20.486,6.084,19.414,5.533L19.414,5.533z M13.24,8.396
	c-0.114,0.116-0.252,0.174-0.413,0.174s-0.296-0.058-0.406-0.174c-0.11-0.115-0.164-0.251-0.164-0.412
	c0-0.161,0.054-0.299,0.164-0.414s0.246-0.173,0.406-0.173c0.161,0,0.299,0.058,0.413,0.173c0.115,0.115,0.174,0.253,0.174,0.414
	C13.414,8.144,13.355,8.282,13.24,8.396L13.24,8.396z M19.579,8.396c-0.111,0.116-0.246,0.174-0.406,0.174
	c-0.161,0-0.299-0.058-0.413-0.174c-0.116-0.115-0.174-0.251-0.174-0.412c0-0.161,0.058-0.299,0.174-0.414
	c0.114-0.115,0.252-0.173,0.413-0.173c0.16,0,0.295,0.058,0.406,0.173c0.109,0.115,0.164,0.253,0.164,0.414
	C19.743,8.144,19.688,8.282,19.579,8.396L19.579,8.396z M19.579,8.396"/>
<path fill="#9F9F9F" d="M9.099,21.637c0,0.462,0.159,0.853,0.48,1.173s0.712,0.481,1.173,0.481h1.112l0.015,3.414
	c0,0.43,0.151,0.796,0.452,1.098c0.301,0.3,0.662,0.45,1.083,0.45c0.431,0,0.796-0.15,1.098-0.45c0.3-0.302,0.45-0.668,0.45-1.098
	v-3.414h2.075v3.414c0,0.43,0.15,0.796,0.451,1.098c0.301,0.3,0.667,0.45,1.098,0.45s0.797-0.15,1.097-0.45
	c0.302-0.302,0.452-0.668,0.452-1.098v-3.414h1.127c0.452,0,0.837-0.161,1.159-0.481c0.32-0.32,0.479-0.711,0.479-1.172V11.622
	H9.099V21.637z M9.099,21.637"/>
<path fill="#9F9F9F" d="M25.036,11.337c-0.42,0-0.781,0.147-1.081,0.443c-0.302,0.296-0.451,0.66-0.451,1.09v6.467
	c0,0.431,0.149,0.796,0.451,1.098c0.3,0.3,0.661,0.45,1.081,0.45c0.432,0,0.798-0.15,1.099-0.45
	c0.301-0.302,0.451-0.667,0.451-1.098V12.87c0-0.43-0.15-0.793-0.451-1.09C25.834,11.484,25.468,11.337,25.036,11.337L25.036,11.337
	z M25.036,11.337"/>
</svg>
