<?xml version="1.0" encoding="utf-8"?>
<!-- Generator: Adobe Illustrator 16.0.0, SVG Export Plug-In . SVG Version: 6.00 Build 0)  -->
<!DOCTYPE svg PUBLIC "-//W3C//DTD SVG 1.1//EN" "http://www.w3.org/Graphics/SVG/1.1/DTD/svg11.dtd">
<svg version="1.1" id="facebook" xmlns="http://www.w3.org/2000/svg" xmlns:xlink="http://www.w3.org/1999/xlink" x="0px" y="0px"
	 width="32px" height="32px" viewBox="0 0 32 32" enable-background="new 0 0 32 32" xml:space="preserve">
<path fill-rule="evenodd" clip-rule="evenodd" fill="#9E9E9E" d="M27.311,1.5H3.731c-1.31,0-2.231,0.693-2.231,2v23.579
	c0,1.309,0.922,2.421,2.231,2.421H15.5c0-1.278,0-7,0-12h-3v-4h3v-3.107c0-1.999,0.994-5.125,5.184-5.125L24.5,5.285V9.5
	c0,0-2.652,0-3.096,0c-0.448,0-1.904,0.196-1.904,1.147V13.5h4.707l0.007,4H19.5c0,4,0,10.722,0,12h7.811
	c1.31,0,2.189-1.112,2.189-2.421V3.5C29.5,2.193,28.62,1.5,27.311,1.5z"/>
</svg>
