<svg id="圖層_1" data-name="圖層 1" xmlns="http://www.w3.org/2000/svg" viewBox="0 0 639.06 639.06"><defs><style>.cls-1{fill:#fff;}</style></defs><title>ticket-alt-solid</title><path class="cls-1" d="M138.51,364.78,364.78,138.51,500.55,274.27,274.27,500.55Zm350.72-215a48,48,0,0,0,67.89,0L625,217.71a48,48,0,0,1,0,67.88L285.59,625a48,48,0,0,1-67.88,0l-67.89-67.88a48,48,0,1,0-67.88-67.89L14.06,421.35a48,48,0,0,1,0-67.88L353.47,14.06a48,48,0,0,1,67.88,0l67.88,67.88A48,48,0,0,0,489.23,149.82ZM381.75,110.23a24,24,0,0,0-33.94,0L110.23,347.81a24,24,0,0,0,0,33.94L257.3,528.83a24,24,0,0,0,33.94,0L528.83,291.24a24,24,0,0,0,0-33.94Z"/></svg>