<?xml version="1.0" encoding="utf-8"?>
<!-- Generator: Adobe Illustrator 19.0.0, SVG Export Plug-In . SVG Version: 6.00 Build 0)  -->
<svg version="1.1" id="圖層_1" xmlns="http://www.w3.org/2000/svg" xmlns:xlink="http://www.w3.org/1999/xlink" x="0px" y="0px"
	 viewBox="0 0 80 80" style="enable-background:new 0 0 80 80;" xml:space="preserve">
<style type="text/css">
	.st0{fill:#FFFFFF;}
</style>
<g id="XMLID_390_">
	<rect id="XMLID_529_" x="18.4" y="28.4" class="st0" width="36.6" height="1.6"/>
	<path id="XMLID_497_" class="st0" d="M43.8,37.4H18.4V39h23.9C42.7,38.4,43.2,37.9,43.8,37.4z"/>
	<path id="XMLID_489_" class="st0" d="M39.1,47.8c0-0.5,0-1,0.1-1.5H18.4V48h20.7C39.1,47.9,39.1,47.9,39.1,47.8z"/>
	<path id="XMLID_488_" class="st0" d="M47.9,61.1c-3.4,1.2-7.2,1.9-11.2,1.9c-1.9,0-3.7-0.2-5.6-0.5l-0.2,0l-16.1,3
		c1.2-1.8,3.2-4.6,4.3-6.5l0.5-0.7l-0.7-0.5C11.7,53.1,7.7,46,7.7,38.4c0-13.6,13-24.7,29-24.7c14.2,0,26.1,8.8,28.5,20.3
		c0.7,0.3,1.4,0.6,2,1c-1.9-13-14.9-23.1-30.5-23.1c-17,0-30.8,11.9-30.8,26.5c0,8,4.1,15.4,11.3,20.4c-1.9,2.9-5,7.4-5.1,7.5
		l-1.2,1.8l20.1-3.7c1.9,0.3,3.8,0.5,5.7,0.5c4.9,0,9.4-1,13.5-2.7C49.4,61.8,48.6,61.5,47.9,61.1z"/>
	<path id="XMLID_424_" class="st0" d="M74.1,47.8c0-8.1-7.7-14.6-17.1-14.6S40,39.7,40,47.8c0,8.1,7.7,14.6,17.1,14.6
		c1.1,0,2.2-0.1,3.3-0.3l10.4,1.9c0,0-2.1-3.1-3.2-4.7C71.5,56.7,74.1,52.5,74.1,47.8z M46,42.4h22.1v1.8H46V42.4z M46,53.2v-1.8
		h22.1v1.8H46z"/>
</g>
</svg>
