<?xml version="1.0" encoding="utf-8"?>
<!-- Generator: Adobe Illustrator 16.0.0, SVG Export Plug-In . SVG Version: 6.00 Build 0)  -->
<!DOCTYPE svg PUBLIC "-//W3C//DTD SVG 1.1//EN" "http://www.w3.org/Graphics/SVG/1.1/DTD/svg11.dtd">
<svg version="1.1" id="圖層_1" xmlns="http://www.w3.org/2000/svg" xmlns:xlink="http://www.w3.org/1999/xlink" x="0px" y="0px"
	 width="101.334px" height="39.029px" viewBox="0 0 101.334 39.029" enable-background="new 0 0 101.334 39.029"
	 xml:space="preserve">
<g>
	<g>
		<polygon fill="#FFFFFF" points="86.899,25.551 87.474,25.551 87.474,25.305 87.414,25.305 86.01,25.305 86.01,25.551 
			86.644,25.551 86.644,26.465 85.929,26.465 85.929,26.713 86.644,26.713 86.644,28.021 86.899,28.021 86.899,26.713 
			87.583,26.713 87.583,26.465 86.899,26.465 		"/>
	</g>
	<g>
		<g>
			<path fill="#FFFFFF" d="M85.086,26.297v0.498h-1.771c0.006-0.041,0.006-0.096,0.006-0.096v-0.402H85.086z M83.321,25.546h1.766
				v0.504h-1.766V25.546z M82.987,27.918c0.129-0.263,0.225-0.552,0.291-0.871h1.809v0.622c0,0-0.004,0.021-0.004,0.03
				c-0.027,0.017-0.143,0.052-0.596-0.054l-0.065-0.012v0.27l0.042,0.011c0.207,0.041,0.377,0.066,0.51,0.066
				c0.129,0,0.23-0.036,0.305-0.097c0.043-0.038,0.07-0.098,0.07-0.17v-2.322c0-0.049-0.043-0.091-0.106-0.098h-2.076
				c-0.06,0-0.103,0.041-0.103,0.097v1.233c-0.006,0.347-0.115,0.754-0.328,1.198l-0.021,0.061l0.248,0.08L82.987,27.918z"/>
		</g>
		<g>
			<path fill="#FFFFFF" d="M13.808,18.973l0.975,5.497l0.082,0.456l0.457-0.076l1.362-0.229l0.465-0.077l-0.082-0.463l-0.982-5.588
				L16,18.006l-0.483,0.112l-1.355,0.317l-0.432,0.102L13.808,18.973z"/>
			<path fill="#FFFFFF" d="M25.994,19.45h7.209h0.466v-0.469v-1.336v-0.468h-0.466H17.699h-0.467v0.468v1.336v0.469h0.467h6.907
				l-0.467-0.469v7.209l0.467-0.468h-7.935h-0.467v0.468v1.435v0.467h0.467h17.43h0.467v-0.467v-1.435v-0.468h-0.467h-8.107
				l0.469,0.468v-7.209L25.994,19.45z"/>
			<path fill="#FFFFFF" d="M45.627,21.145l-3.645,1.449l0.64,0.435v-9.264l-0.467,0.467h3.557h0.467v-0.467v-1.333v-0.467h-0.467
				h-3.557l0.467,0.467v-8.07l-0.467,0.468h3.769h0.467V4.362v-1.33V2.565h-0.467h-8.872h-0.467v0.467v1.33v0.468h0.467h3.705
				l-0.468-0.468v8.069l0.468-0.467h-3.705h-0.467v0.467v1.333v0.467h0.467h3.705l-0.468-0.467v9.7l0.341-0.449l-3.79,1.076
				l-0.507,0.146l0.205,0.487l0.529,1.251l0.158,0.37l0.389-0.102c4.204-1.082,7.219-2.104,8.958-3.033l0.385-0.205l-0.179-0.4
				l-0.552-1.219l-0.183-0.405L45.627,21.145z"/>
			<path fill="#FFFFFF" d="M15.993,17.214l1.314-0.337l0.463-0.119l-0.128-0.459c-0.266-0.952-0.894-2.609-1.977-5.216l-0.168-0.407
				l-0.418,0.146l-1.308,0.458l-0.474,0.165l0.199,0.461l0.917,2.129l-0.037-0.187v0.1l0.419-0.465l-5.454,0.544l0.393,0.776
				c2.872-3.203,4.751-6.27,5.594-9.117l0.134-0.455l-0.457-0.128l-1.318-0.369l-0.427-0.12l-0.14,0.422
				c-0.484,1.444-1.203,2.931-2.2,4.537l0.709-0.102l-2.25-2.007L9.476,8.04c1.155-2.076,2.024-3.838,2.577-5.24l0.161-0.409
				l-0.395-0.186l-1.235-0.578l-0.446-0.21L9.952,1.876C9.218,3.705,8.446,5.349,7.657,6.764L8.32,6.6L6.854,5.637l-0.4-0.263
				L6.2,5.779L5.489,6.912L5.234,7.317l0.412,0.244c1.479,0.876,2.982,2.088,4.596,3.707l-0.047-0.603
				c-0.966,1.338-1.935,2.56-2.963,3.733l0.313-0.157l-1.596,0.134L5.404,14.42l0.128,0.531l0.315,1.301l0.098,0.396l0.404-0.041
				l4.649-0.458l-0.513-0.466V28.49v0.47h0.469h1.381h0.467v-0.47V15.569l-0.417,0.466l3.056-0.318l-0.493-0.323l0.483,1.512
				l0.134,0.421L15.993,17.214z"/>
			<path fill="#FFFFFF" d="M55.853,22.047h7.789h0.467v-0.469v-1.343v-0.467h-0.467h-7.789l0.471,0.467v-3.742v-0.468h-0.471h-1.388
				h-0.469v0.468v3.742l0.469-0.467h-7.379H46.62v0.467v1.343v0.469h0.467h7.379l-0.469-0.469v4.612l0.469-0.468h-8.794h-0.468
				v0.468v1.435v0.467h0.468H64.72h0.469v-0.467v-1.435v-0.468H64.72h-8.865l0.47,0.468v-4.612L55.853,22.047z"/>
			<path fill="#FFFFFF" d="M83.7,10.821c-0.656-1.889-1.043-3.752-1.15-5.536c0.004,0.027,0.004-0.27,0.004-0.27
				c0,0.021,0.053-1.316,0.053-1.316c0.004-0.02,0.004-2.098,0.004-2.098V1.133H82.14h-1.846h-0.466v0.468V3.78
				c0,7.911-2.21,13.833-6.759,18.105c-1.594,1.604-3.582,2.679-5.825,3.822l-0.511,0.26l0.357,0.447l1.104,1.38l0.254,0.32
				l0.354-0.212c4.402-2.666,7.09-4.939,8.984-7.604c2.08-3.104,3.386-6.068,4.119-9.341l0.029-0.134l-0.047-0.13l-0.097-0.262
				l-0.892,0.28c1.19,4.517,3.953,8.811,8.693,13.514l0.012,0.013l0.013,0.011l4.077,3.491l0.289,0.246l0.302-0.231l1.506-1.163
				l0.47-0.362l-0.462-0.371C89.172,20.513,85.325,15.737,83.7,10.821z"/>
			<path fill="#FFFFFF" d="M32.509,6.171l-1.261-0.558l-0.497-0.22l-0.143,0.525c-0.447,1.656-1.109,3.032-2.023,4.207
				c-0.329,0.439-0.316,0.915,0.028,1.282c0.853,0.962,1.741,2.411,2.699,4.426l0.224,0.471l0.443-0.274l1.185-0.732l0.382-0.235
				l-0.223-0.392c-1.14-2.016-2.059-3.416-2.658-4.051c0.041,0.037,0.054,0.176,0.01,0.238c0,0,0.003-0.002,0.005-0.007l0.022-0.022
				l0.014-0.027c0.707-1.085,1.39-2.44,2.038-4.024l0.172-0.422L32.509,6.171z"/>
			<path fill="#FFFFFF" d="M5.486,26.73l1.34,0.362l0.415,0.112l0.146-0.402c1.138-3.119,1.821-5.685,2.093-7.853l0.055-0.429
				l-0.422-0.088l-1.38-0.284l-0.494-0.102l-0.064,0.5c-0.249,1.957-0.926,4.505-2.008,7.575L5,26.598L5.486,26.73z"/>
			<path fill="#FFFFFF" d="M33.425,2.565h-16.65h-0.468v0.467v1.319v0.467h0.468h16.65h0.467V4.352v-1.32V2.565H33.425z"/>
			<path fill="#FFFFFF" d="M27.152,6.275l-1.188-0.688L25.51,5.322L25.3,5.808c-0.735,1.72-1.575,3.111-2.562,4.253l0.02-0.021
				c-0.634,0.646,0.086,1.514,0.392,1.885c0.731,0.82,1.605,2.206,2.541,4.021l0.24,0.463l0.432-0.285l1.148-0.752l0.378-0.248
				l-0.234-0.386c-1.176-1.938-2.146-3.327-2.887-4.127l0.022,0.027c0.057,0.072,0.069,0.199-0.01,0.286l0.01-0.01l0.01-0.013
				c0.626-0.782,1.452-2.088,2.525-3.99l0.226-0.402L27.152,6.275z"/>
			<path fill="#FFFFFF" d="M21.317,6.206l-1.226-0.6l-0.474-0.229l-0.173,0.497c-0.617,1.771-1.387,3.228-2.289,4.33
				c-0.516,0.622,0.173,1.538,0.432,1.883c0.75,1.07,1.45,2.396,2.131,4.042l0.205,0.495l0.461-0.271l1.195-0.698l0.381-0.223
				l-0.201-0.392c-1.004-1.979-1.836-3.367-2.538-4.243c0.035,0.045,0.035,0.13,0.011,0.166c0.691-0.967,1.463-2.358,2.303-4.138
				l0.195-0.416L21.317,6.206z"/>
		</g>
		<g>
			<g>
				<path fill="#FFFFFF" d="M61.468,6.646l4.244-5.015L64.265,0.5l-4.779,4.476l-2.44-2.057L56.714,2.64h-9.559v4.931l-1.038,0.916
					l1.038,0.953v7.806H63.61V8.451l-0.422-0.354L61.468,6.646z M61.237,9.557v0.141h-2.352l1.049-1.238L61.237,9.557z M57.742,6.61
					L56.2,8.079V5.31L57.742,6.61z M54.002,5.013v5.456l-0.146-0.095l-4.329-3.277V5.013H54.002z M49.528,11.62l3.542,3.253h-3.542
					V11.62z M54.466,14.873l2.495-2.95l4.276-0.007v2.957H54.466z"/>
			</g>
		</g>
		<g>
			<polygon fill="#FFFFFF" points="87.972,25.297 87.915,25.297 87.712,25.297 87.712,27.389 87.972,27.389 			"/>
		</g>
	</g>
	<g>
		<path fill="#FFFFFF" d="M88.667,25.171h-0.202v2.532c0,0-0.003,0.006-0.008,0.006c-0.069,0.034-0.226,0.051-0.595-0.04
			l-0.074-0.023V27.9l0.044,0.015c0.388,0.104,0.644,0.104,0.788,0.01c0.066-0.035,0.102-0.104,0.107-0.183v-2.57H88.667z"/>
	</g>
	<g>
		<g>
			<path fill="#FFFFFF" d="M6.476,36.563h0.558v-4.487H6.476v-0.14h1.862l0.83,2.865l0.824-2.865h1.777v0.14h-0.564v4.487h0.564
				v0.137H9.524v-0.137h0.563V32.08l-1.358,4.617H8.572l-1.403-4.609v4.475h0.566v0.137h-1.26L6.476,36.563L6.476,36.563z"/>
			<path fill="#FFFFFF" d="M13.282,33.402l0.59,1.742h-1.196L13.282,33.402z M11.507,36.698h1.361v-0.136h-0.677l0.445-1.276h1.289
				l0.419,1.276h-0.59v0.136h2.226v-0.136h-0.405l-1.65-4.662H13.66l-1.62,4.662h-0.533V36.698z"/>
			<path fill="#FFFFFF" d="M15.813,36.563h0.555v-4.487h-0.555v-0.14h1.825l1.854,3.031v-2.893h-0.573v-0.14h1.273v0.14h-0.565
				v4.623h-0.415l-2.708-4.417v4.281h0.567v0.136h-1.257L15.813,36.563L15.813,36.563z"/>
			<path fill="#FFFFFF" d="M21.321,33.402l0.592,1.742h-1.198L21.321,33.402z M19.548,36.698h1.359v-0.136h-0.675l0.444-1.276h1.288
				l0.421,1.276h-0.591v0.136h2.228v-0.136h-0.403L21.964,31.9h-0.263l-1.623,4.662h-0.53V36.698z"/>
			<path fill="#FFFFFF" d="M27.297,31.914h0.126l0.069,1.375h-0.136c-0.072-0.229-0.128-0.394-0.18-0.492
				c-0.046-0.1-0.163-0.262-0.349-0.49c-0.183-0.229-0.486-0.344-0.901-0.344c-0.207,0-0.398,0.045-0.559,0.139
				c-0.167,0.093-0.297,0.244-0.397,0.459c-0.099,0.217-0.148,0.804-0.148,1.759c0,0.491,0.016,0.872,0.04,1.137
				c0.026,0.264,0.089,0.53,0.187,0.801c0.097,0.272,0.349,0.409,0.76,0.409c0.233,0,0.403-0.072,0.506-0.21
				c0.107-0.139,0.161-0.363,0.161-0.674v-0.96h-0.545V34.69h2.209v0.133h-0.497v0.96c-0.054,0.077-0.104,0.146-0.152,0.204
				c-0.05,0.06-0.136,0.156-0.254,0.288c-0.121,0.137-0.313,0.255-0.571,0.354c-0.256,0.103-0.536,0.154-0.836,0.154
				c-0.709,0-1.26-0.262-1.658-0.779c-0.395-0.515-0.592-1.075-0.592-1.672c0-0.699,0.22-1.289,0.658-1.771
				c0.433-0.477,0.969-0.717,1.599-0.717c0.243,0,0.442,0.027,0.603,0.08c0.158,0.051,0.356,0.156,0.596,0.317L27.297,31.914z"/>
			<path fill="#FFFFFF" d="M28.016,36.563h0.574v-4.487h-0.574v-0.14h3.724l0.072,1.301h-0.135c-0.057-0.275-0.174-0.537-0.348-0.79
				c-0.175-0.249-0.43-0.371-0.763-0.371h-0.864v2.155h0.105c0.06,0,0.119,0,0.176-0.002c0.054-0.004,0.139-0.018,0.252-0.05
				c0.113-0.03,0.205-0.101,0.281-0.216c0.062-0.082,0.106-0.166,0.133-0.261c0.028-0.096,0.05-0.234,0.066-0.425h0.134v2.044
				h-0.135c-0.021-0.178-0.041-0.311-0.065-0.397c-0.025-0.091-0.081-0.208-0.171-0.35c-0.09-0.146-0.296-0.218-0.615-0.218h-0.16
				v2.205h0.878c0.153,0,0.317-0.047,0.484-0.142c0.17-0.091,0.309-0.202,0.41-0.337c0.106-0.138,0.18-0.261,0.221-0.365
				c0.053-0.109,0.103-0.283,0.161-0.521h0.11l-0.063,1.501h-3.888V36.563z"/>
			<path fill="#FFFFFF" d="M33.738,32.074h0.644c0.223,0,0.387,0.079,0.5,0.242c0.108,0.166,0.165,0.436,0.165,0.81
				c0,0.352-0.063,0.608-0.186,0.759c-0.126,0.16-0.331,0.238-0.615,0.238h-0.508V32.074z M32.052,36.698h2.263v-0.136h-0.577
				v-2.307h0.417c0.223,0,0.397,0.075,0.529,0.225c0.128,0.146,0.195,0.353,0.195,0.611l0.035,0.589c0,0.343,0.096,0.607,0.288,0.79
				c0.195,0.184,0.463,0.275,0.8,0.275c0.116,0,0.22-0.012,0.314-0.029c0.096-0.023,0.216-0.059,0.359-0.117l-0.04-0.115
				c-0.091,0.052-0.165,0.078-0.217,0.078c-0.13,0-0.214-0.053-0.259-0.153c-0.042-0.105-0.063-0.298-0.063-0.574
				c0-0.246-0.022-0.448-0.069-0.615c-0.042-0.168-0.111-0.318-0.205-0.451c-0.091-0.135-0.188-0.231-0.289-0.299
				c-0.104-0.067-0.207-0.115-0.319-0.144c-0.11-0.034-0.265-0.062-0.463-0.096c0.198-0.035,0.359-0.067,0.479-0.108
				c0.119-0.038,0.244-0.091,0.375-0.158c0.212-0.117,0.36-0.244,0.45-0.385c0.089-0.146,0.133-0.33,0.133-0.559
				c0-0.346-0.133-0.611-0.406-0.8c-0.266-0.188-0.638-0.285-1.123-0.285h-2.606v0.14h0.573v4.487h-0.573L32.052,36.698
				L32.052,36.698z"/>
		</g>
		<g>
			<path fill="#FFFFFF" d="M38.041,33.838c0.208-0.117,0.363-0.226,0.467-0.32c0.104-0.094,0.186-0.17,0.244-0.229
				c0.059-0.061,0.116-0.124,0.173-0.189c0.054-0.063,0.109-0.133,0.158-0.208c0.053-0.072,0.109-0.169,0.176-0.279h0.133v1.229
				h0.568v0.137h-0.568v2.033c0,0.278,0.094,0.417,0.28,0.417c0.17,0,0.31-0.146,0.424-0.441l0.122,0.038
				c-0.057,0.162-0.113,0.284-0.167,0.357c-0.057,0.079-0.151,0.151-0.282,0.228c-0.133,0.073-0.323,0.112-0.568,0.112
				c-0.518,0-0.777-0.205-0.777-0.621v-2.123h-0.381v-0.141H38.041z"/>
			<path fill="#FFFFFF" d="M41.1,35.1c0-0.518,0.041-0.855,0.114-1.016c0.075-0.162,0.224-0.244,0.452-0.244
				c0.209,0,0.342,0.075,0.389,0.217c0.053,0.144,0.085,0.297,0.102,0.451c0.01,0.156,0.015,0.383,0.015,0.68
				c0,0.278-0.005,0.51-0.022,0.699c-0.017,0.191-0.047,0.357-0.094,0.502c-0.044,0.141-0.185,0.213-0.426,0.213
				c-0.24,0-0.378-0.072-0.425-0.213c-0.042-0.139-0.072-0.285-0.084-0.436c-0.01-0.149-0.02-0.396-0.02-0.739L41.1,35.1L41.1,35.1z
				 M40.535,34.162c-0.303,0.282-0.454,0.641-0.454,1.063c0,0.416,0.15,0.771,0.454,1.06c0.303,0.291,0.669,0.438,1.098,0.438
				c0.428,0,0.796-0.146,1.102-0.438c0.306-0.295,0.458-0.646,0.458-1.06c0-0.414-0.148-0.767-0.449-1.055
				c-0.301-0.292-0.662-0.438-1.083-0.438C41.213,33.732,40.838,33.874,40.535,34.162z"/>
			<path fill="#FFFFFF" d="M45.494,35.857c-0.017,0.07-0.05,0.16-0.098,0.266c-0.053,0.11-0.126,0.206-0.223,0.288
				c-0.099,0.084-0.197,0.121-0.298,0.121c-0.113,0-0.205-0.037-0.27-0.121c-0.067-0.082-0.108-0.166-0.126-0.244
				c-0.02-0.081-0.026-0.199-0.026-0.362v-0.142v-0.899c0-0.033,0-0.086,0.004-0.149c0-0.063,0.012-0.143,0.027-0.23
				c0.032-0.113,0.089-0.205,0.167-0.285c0.079-0.079,0.161-0.12,0.247-0.12c0.101,0,0.203,0.056,0.306,0.162
				c0.099,0.109,0.175,0.225,0.232,0.35c0.053,0.125,0.076,0.244,0.076,0.353v0.807C45.514,35.721,45.51,35.793,45.494,35.857z
				 M45.514,34.277c-0.133-0.19-0.256-0.326-0.38-0.405c-0.121-0.074-0.271-0.113-0.447-0.113c-0.359,0-0.662,0.152-0.915,0.451
				c-0.255,0.305-0.383,0.668-0.383,1.094c0,0.4,0.123,0.734,0.371,1.005c0.241,0.27,0.54,0.403,0.893,0.403
				c0.346,0,0.565-0.063,0.652-0.188c0.092-0.127,0.148-0.213,0.178-0.258c0.028-0.044,0.05-0.09,0.069-0.13v0.499h1.361v-0.137
				H46.48v-4.621h-1.405v0.135h0.439V34.277z"/>
			<path fill="#FFFFFF" d="M48.669,35.793c0,0.151-0.042,0.285-0.126,0.397c-0.079,0.111-0.177,0.166-0.291,0.166
				c-0.111,0-0.198-0.05-0.258-0.152c-0.064-0.104-0.093-0.245-0.093-0.429c0-0.161,0.032-0.286,0.098-0.377
				c0.05-0.074,0.129-0.134,0.247-0.179c0.114-0.049,0.255-0.07,0.422-0.07L48.669,35.793L48.669,35.793z M48.669,35.025
				l-0.192,0.019c-0.242,0.038-0.422,0.065-0.536,0.091c-0.116,0.021-0.251,0.069-0.41,0.132c-0.161,0.063-0.277,0.131-0.353,0.21
				c-0.076,0.071-0.136,0.155-0.17,0.247c-0.034,0.094-0.051,0.188-0.051,0.276c0,0.206,0.071,0.374,0.218,0.507
				c0.143,0.131,0.328,0.197,0.558,0.197c0.192,0,0.373-0.049,0.536-0.148c0.138-0.076,0.272-0.2,0.402-0.375
				c0.057,0.189,0.141,0.324,0.246,0.404c0.107,0.078,0.258,0.119,0.453,0.119c0.247,0,0.439-0.07,0.572-0.209l0.1-0.138
				l-0.05-0.092c-0.082,0.08-0.158,0.115-0.22,0.115c-0.089,0-0.128-0.045-0.128-0.137v-0.159v-1.681
				c0-0.423-0.397-0.642-1.185-0.642c-0.413,0-0.737,0.066-0.97,0.201c-0.237,0.132-0.353,0.313-0.353,0.535
				c0,0.112,0.041,0.209,0.123,0.285c0.084,0.073,0.192,0.112,0.327,0.112c0.13,0,0.24-0.043,0.328-0.127s0.133-0.186,0.133-0.303
				c0-0.086-0.025-0.156-0.074-0.213c-0.049-0.058-0.077-0.092-0.081-0.107c-0.003-0.012-0.01-0.024-0.016-0.039
				c0-0.057,0.044-0.107,0.126-0.151c0.086-0.042,0.187-0.064,0.303-0.064c0.136,0,0.232,0.033,0.284,0.101
				c0.055,0.063,0.082,0.181,0.082,0.34v0.693H48.669z"/>
			<path fill="#FFFFFF" d="M49.706,33.84h1.816v0.137h-0.43l0.717,1.628l0.633-1.628h-0.566V33.84h1.116v0.137h-0.405l-1.597,4.001
				c-0.205,0.507-0.457,0.759-0.745,0.759c-0.134,0-0.248-0.041-0.333-0.127c-0.091-0.088-0.133-0.193-0.133-0.321
				c0-0.119,0.042-0.228,0.133-0.323c0.097-0.097,0.199-0.147,0.321-0.147c0.082,0,0.143,0.015,0.183,0.042
				c0.042,0.026,0.083,0.069,0.13,0.128c0.044,0.062,0.072,0.097,0.082,0.105c0.01,0.008,0.025,0.016,0.042,0.024
				c0.037,0,0.072-0.024,0.112-0.073c0.036-0.049,0.071-0.123,0.108-0.224l0.427-1.116l-1.287-2.728h-0.324L49.706,33.84
				L49.706,33.84z"/>
		</g>
	</g>
</g>
</svg>
