<?xml version="1.0" encoding="utf-8"?>
<!-- Generator: Adobe Illustrator 19.0.0, SVG Export Plug-In . SVG Version: 6.00 Build 0)  -->
<svg version="1.1" id="圖層_1" xmlns="http://www.w3.org/2000/svg" xmlns:xlink="http://www.w3.org/1999/xlink" x="0px" y="0px"
	 viewBox="0 0 80 80" style="enable-background:new 0 0 80 80;" xml:space="preserve">
<style type="text/css">
	.st0{fill:#FFFFFF;}
	.st1{fill:none;stroke:#FFFFFF;stroke-width:2.2088;stroke-linecap:round;stroke-miterlimit:10;}
</style>
<g id="XMLID_591_">
	<path id="XMLID_597_" class="st0" d="M40,7.1C25.7,7.1,14.2,18.7,14.2,33c0,5.9,2,11.3,5.2,15.6C24.1,54.8,40,72.9,40,72.9
		s15.9-18.1,20.6-24.3c3.3-4.3,5.2-9.7,5.2-15.6C65.8,18.7,54.3,7.1,40,7.1z M40.1,52.3c-10.9,0-19.7-8.8-19.7-19.7
		s8.8-19.7,19.7-19.7c10.9,0,19.7,8.8,19.7,19.7S50.9,52.3,40.1,52.3z"/>
	<g id="XMLID_592_">
		<circle id="XMLID_596_" class="st0" cx="32.4" cy="38.9" r="3.2"/>
		<g id="XMLID_593_">
			<path id="XMLID_595_" class="st1" d="M43,42.1c0-6.9-5.6-12.5-12.5-12.5"/>
			<path id="XMLID_594_" class="st1" d="M50.8,42.6c0-11.2-9.1-20.3-20.3-20.3"/>
		</g>
	</g>
</g>
</svg>
