<?xml version="1.0" encoding="utf-8"?>
<!-- Generator: Adobe Illustrator 19.0.0, SVG Export Plug-In . SVG Version: 6.00 Build 0)  -->
<svg version="1.1" id="圖層_1" xmlns="http://www.w3.org/2000/svg" xmlns:xlink="http://www.w3.org/1999/xlink" x="0px" y="0px"
	 viewBox="0 0 80 80" style="enable-background:new 0 0 80 80;" xml:space="preserve">
<style type="text/css">
	.st0{fill:#FFFFFF;}
	.st1{fill:none;stroke:#FFFFFF;stroke-width:2;stroke-miterlimit:10;}
	.st2{fill:#FFFFFF;stroke:#FFFFFF;stroke-width:0.1187;stroke-miterlimit:10;}
</style>
<g id="XMLID_555_">
	<path id="XMLID_582_" class="st0" d="M16.8,14.3c-0.7-0.7-1.2-3.3-1.5-4.2c-0.3,0.9-0.8,3.5-1.5,4.2c-0.6,0.6-1.4,1.1-2.1,1.4
		c0.8,0.3,1.5,0.8,2.1,1.4c0.7,0.7,1.2,3.3,1.5,4.2c0.3-0.9,0.8-3.5,1.5-4.2c0.6-0.6,1.4-1.1,2.1-1.4C18.1,15.4,17.4,14.9,16.8,14.3
		z"/>
	<path id="XMLID_580_" class="st1" d="M44.9,25.4c-0.9,0.3-0.7,0.6-1.7,1.8c-2.2,2.8-7.3,2.8-7.9,4.7c-0.3,0.9-0.2,1.2,0.8,2.7
		c0.7,1,0.6,0.7,0,2.6c-0.6,1.7-2.3-0.1-1.5,2.9c0,0.1,0.9,0.8,0.8,0.7c-0.2-0.2-1.8,0.5-1.7,1.5c0.1,0.7,1.1,0.7,1.2,1.4
		c0.1,0.8-1.4,1-2.2,2.4c-0.8,1.3-0.6,3.2,0,4.3c0.2,0.4,0.8,1.5,3.2,2.6c4.1,2,6.1,0.7,8.5,2.6c1.6,1.3,2.2,3,2.4,3.5
		c1.4,3.8-1.2,6.1-0.1,8.3c1.7,3.4,10.5,3.4,11.7,0.6c0.5-1.3-1-2.2-2.2-5.2c-1.5-4-0.6-8.2,1.1-16.6c1.2-6,2.1-7.9,0.8-9.6
		c-1.4-1.8-4.2-1.6-5.3-4.2c-0.5-1.2,0-1.7-0.7-2.7c-0.8-1.2-1.6-1-4.2-2.6C46.1,25.8,45.7,25.2,44.9,25.4z"/>
	<path id="XMLID_556_" class="st2" d="M79.5,33.6c-3.2-13.7-21.1-21-29-16.9c-2,1-1.9,2.1-4.9,4.5c-6.4,5.4-13.6,6.5-17.5,7.1
		c-15.7,2.3-25.5-5.7-27.6-2.9c-2.8,3.8,6.6,19.8,21,29.5c3.8,2.6,13.5,9.1,24.7,10.4c0.3-1.6,1.2-3.5,0.3-6.1
		c-0.2-0.5-0.8-2.2-2.3-3.4c-2.4-1.9-4.2-0.6-8.3-2.5c-2.4-1.1-2.9-2.1-3.1-2.5c-0.6-1.1-0.8-2.9,0-4.2c0.8-1.3,2.2-1.6,2.1-2.3
		c-0.1-0.6-1.1-0.7-1.2-1.3c-0.1-0.9,1.3-1.5,1.6-1.5c-0.2-0.1-0.7-0.5-0.7-0.6c-0.8-2.9,0.9-1.3,1.5-2.9c0.6-1.8,0.7-1.6,0-2.5
		c-1-1.5-1.1-1.7-0.8-2.7c0.5-1.8,5.6-1.8,7.7-4.5c0.9-1.2,0.7-1.5,1.6-1.8c0.7-0.2,1.1,0.4,3,1.6c2.5,1.5,3.3,1.4,4.1,2.5
		c0.7,1,0.2,1.5,0.7,2.7c1,2.5,3.7,2.3,5.1,4.1c1.2,1.6,0.4,3.4-0.8,9.3c-1.7,8.2-2.5,12.3-1,16.2c0.3,0.7,0.6,1.4,0.9,1.9
		c1.9-0.5,3.9-1.2,5.8-2.2C71.3,58.1,82.5,46.4,79.5,33.6z"/>
</g>
</svg>
