<svg height="477pt" viewBox="-62 0 477 477.88448" width="477pt" xmlns="http://www.w3.org/2000/svg"><path d="m152.441406 141.882812c0-8.835937-3.582031-16-8-16-4.417968 0-8 7.164063-8 16 0 8.839844 3.582032 16 8 16 4.417969 0 8-7.160156 8-16zm0 0"/><path d="m216.441406 141.882812c0-8.835937-3.582031-16-8-16-4.417968 0-8 7.164063-8 16 0 8.839844 3.582032 16 8 16 4.417969 0 8-7.160156 8-16zm0 0"/><path d="m168.441406 146.574219c-.015625 5.117187-2.046875 10.023437-5.65625 13.652343l-2.34375 2.347657v19.308593h16v-12.925781c5.199219-6.304687 8.03125-14.230469 8-22.402343v-4.671876h-16zm0 0"/><path d="m330.25 307.253906c-1.441406-16.554687-12.914062-30.515625-28.871094-35.136718l-48.488281-13.847657c-.503906-1.601562-.96875-3.257812-1.511719-4.882812-2.929687-8.859375-10.203125-15.59375-19.265625-17.832031l-15.671875-3.917969v-1.753907h16c13.253906 0 24-10.742187 24-24v-32.285156c9.933594-1.394531 18.351563-8.015625 22.046875-17.339844 3.691407-9.328124 2.089844-19.917968-4.199219-27.734374l10.050782-35.152344c3.75-13.132813 1.121094-27.265625-7.105469-38.171875-8.222656-10.90625-21.09375-17.316407-34.753906-17.316407h-31.078125l-24.632813-21.109374c-16.273437-13.960938-38.070312-19.640626-59.089843-15.398438-21.015626 4.246094-38.902344 17.9375-48.484376 37.117188-9.824218 19.65625-12.296874 42.175781-6.96875 63.496093l6.558594 26.273438c-6.402344 7.792969-8.101562 18.4375-4.441406 27.835937 3.660156 9.398438 12.109375 16.089844 22.097656 17.5v32.285156c0 13.257813 10.746094 24 24 24h16v1.753907l-15.664062 3.917969c-9.0625 2.246093-16.34375 8.984374-19.277344 17.851562-.53125 1.597656-.898438 3.199219-1.394531 4.796875l-48.597657 13.890625c-15.960937 4.621094-27.433593 18.582031-28.875 35.132812l-5.550781 66.65625h-16.640625v48h32v56h16v-56h24v56h16v-128h-16v24h-39.304687l5.441406-65.300781c.859375-9.941406 7.746094-18.324219 17.328125-21.097656l39.246094-11.199219c-4.425782 18.878906-6.675782 38.207032-6.710938 57.597656 0 3.03125 1.710938 5.800782 4.421875 7.15625 2.710938 1.355469 5.953125 1.0625 8.378907-.753906l21.046874-15.785156c5.25-3.929688 11.875-5.542969 18.34375-4.472656l19.808594 3.296875v154.558593h16v-149.75l3.375-2.703124 32.433594-5.402344c6.46875-1.066406 13.09375.550781 18.34375 4.472656l21.046875 15.785156c2.425781 1.816406 5.667969 2.109375 8.378906.753906 2.710938-1.355468 4.421875-4.125 4.421875-7.15625-.039062-19.390624-2.292968-38.71875-6.726562-57.597656l39.261718 11.199219c9.578126 2.769531 16.464844 11.148437 17.328126 21.082031l5.441406 65.316406h-39.304688v-24h-16v128h16v-56h24v56h16v-56h32v-48h-16.640625zm-257.808594 82.628906v16h-56v-16zm184-232.734374v-22.527344c4.792969 1.667968 8.003906 6.1875 8.003906 11.261718 0 5.078126-3.210937 9.597657-8.003906 11.265626zm-162.933594-111.496094c7.375-14.773438 21.152344-25.320313 37.335938-28.589844 16.1875-3.269531 32.976562 1.105469 45.511719 11.855469l29.125 24.964843h37c8.640625 0 16.777343 4.054688 21.980469 10.949219 5.203124 6.898438 6.867187 15.835938 4.492187 24.140625l-8.605469 30.128906c-1.277344-.40625-2.582031-.714843-3.90625-.929687v-14.054687l-56.246094-18.746094-2.730468 1.082031c-25.46875 10.21875-52.660156 15.457031-80.101563 15.429687h-20.921875v16.289063c-1.171875.1875-2.332031.457031-3.472656.800781l-5.222656-20.886718c-4.390625-17.605469-2.347656-36.203126 5.761718-52.433594zm-5.066406 100.230468c.023438-5.066406 3.222656-9.574218 8-11.261718v22.527344c-4.777344-1.6875-7.976562-6.195313-8-11.265626zm32 68c-4.417968 0-8-3.578124-8-8v-88h4.921875c28.484375.027344 56.730469-5.226562 83.304688-15.496093l39.773437 13.265625v90.230468c0 4.421876-3.582031 8-8 8zm80 16v24c0 .65625.082032 1.308594.242188 1.945313l3.015625 12.074219c2.261719 9.101562-.972657 18.691406-8.289063 24.566406l-18.96875 15.167969-18.96875-15.199219c-7.3125-5.875-10.550781-15.464844-8.285156-24.570312l3.015625-12.070313c.15625-.625.238281-1.269531.238281-1.914063v-16c0-.101562-.0625-.199218-.070312-.300781l.070312-7.699219zm-57.175781 74.402344c-10.78125-1.785156-21.824219.90625-30.574219 7.457032l-7.6875 5.757812c1.382813-20.082031 5.308594-39.910156 11.679688-59.007812 1.21875-3.671876 4.242187-6.457032 8-7.375l11.757812-2.984376v4.800782l-2.78125 11.117187c-.808594 3.339844-1.183594 6.769531-1.113281 10.203125 0 .398438-.046875.796875 0 1.199219.046875 1.128906.238281 2.222656.382813 3.335937.097656.757813.121093 1.535157.265624 2.289063.183594 1.007813.503907 1.972656.800782 2.957031.222656.800782.382812 1.679688.652344 2.496094.273437.816406.730468 1.753906 1.097656 2.625.367187.871094.65625 1.746094 1.070312 2.585938.296875.566406.675782 1.09375.992188 1.652343.609375 1.089844 1.195312 2.1875 1.90625 3.203125.136718.199219.3125.367188.449218.558594 2.085938 2.921875 4.5625 5.550781 7.359376 7.808594zm96.929687 7.457032c-6.949218-5.195313-15.390624-8-24.066406-8-2.179687-.003907-4.359375.175781-6.511718.535156l-4.191407.695312c4.355469-3.503906 7.925781-7.882812 10.480469-12.855468.0625-.128907.152344-.25.214844-.375.605468-1.273438 1.140625-2.578126 1.601562-3.90625.167969-.441407.390625-.855469.542969-1.296876.375-1.117187.617187-2.269531.886719-3.414062.167968-.6875.410156-1.351562.539062-2.039062.160156-.859376.191406-1.738282.304688-2.601563.117187-1.007813.300781-2.007813.34375-3.03125 0-.367187 0-.753906 0-1.128906.078125-3.457031-.296875-6.910157-1.113282-10.273438l-2.785156-11.148437v-4.800782l11.792969 2.941407c3.765625.914062 6.792969 3.710937 8 7.394531 1.066406 3.152344 2.050781 6.324219 2.953125 9.519531 4.644531 16.136719 7.566406 32.71875 8.71875 49.472657zm96.246094 94.140624h-56v-16h56zm0 0"/><path d="m200.441406 349.882812c0 4.421876-3.582031 8-8 8-4.417968 0-8-3.578124-8-8 0-4.417968 3.582032-8 8-8 4.417969 0 8 3.582032 8 8zm0 0"/><path d="m200.441406 397.882812c0 4.421876-3.582031 8-8 8-4.417968 0-8-3.578124-8-8 0-4.417968 3.582032-8 8-8 4.417969 0 8 3.582032 8 8zm0 0"/><path d="m200.441406 445.882812c0 4.421876-3.582031 8-8 8-4.417968 0-8-3.578124-8-8 0-4.417968 3.582032-8 8-8 4.417969 0 8 3.582032 8 8zm0 0"/></svg>