<svg height="480pt" viewBox="0 0 480.0615 480" width="480pt" xmlns="http://www.w3.org/2000/svg"><path d="m368.039062 40.03125c-12.667968.023438-25.242187 2.207031-37.175781 6.464844-21.054687-29.179688-54.84375-46.464844-90.824219-46.464844-35.980468 0-69.769531 17.285156-90.824218 46.464844-40.183594-14.21875-84.953125-4.367188-115.464844 25.398437-30.507812 29.769531-41.453125 74.285157-28.226562 114.804688 13.222656 40.523437 48.320312 70.011719 90.515624 76.050781v198.945312c.007813 10.121094 8.214844 18.328126 18.335938 18.335938h251.328125c10.125-.007812 18.328125-8.214844 18.335937-18.335938v-198.945312c58.144532-8.347656 99.945313-60.222656 95.734376-118.8125-4.207032-58.589844-52.992188-103.957031-111.734376-103.90625zm-256 421.664062v-45.664062h176v48h-173.664062c-1.289062 0-2.335938-1.046875-2.335938-2.335938zm253.664063 2.335938h-61.664063v-48h64v45.664062c0 1.289063-1.046874 2.335938-2.335937 2.335938zm2.335937-64h-256v-136c35.914063.015625 69.636719-17.289062 90.570313-46.472656 24.207031 8.628906 50.652344 8.628906 74.863281 0 20.933594 29.183594 54.652344 46.488281 90.566406 46.472656zm0-152c-29.570312.023438-57.480468-13.652344-75.582031-37.03125 22.945313-12.109375 40.96875-31.828125 50.964844-55.769531l-14.765625-6.175781c-14.9375 35.757812-49.902344 59.035156-88.652344 59.019531-38.753906-.011719-73.699218-23.316407-88.613281-59.082031l-14.757813 6.160156c9.980469 23.992187 28.011719 43.753906 50.992188 55.886718-29.917969 38.289063-83.734375 48.164063-125.296875 22.992188-41.5625-25.167969-57.742187-77.4375-37.667969-121.6875 20.070313-44.25 70.054688-66.507812 116.371094-51.816406l13.816406 7.199218c16.53125-31.777343 49.378906-51.714843 85.199219-51.714843 35.824219 0 68.667969 19.9375 85.199219 51.714843l13.816406-7.199218c36.070312-11.445313 75.5-.632813 100.683594 27.609375 25.1875 28.246093 31.433594 68.648437 15.945312 103.179687-15.484375 34.527344-49.808594 56.738282-87.652344 56.714844zm0 0"/><path d="m192.320312 354.648438-25.953124 5.597656 3.34375 15.648437 25.960937-5.601562c53.753906-11.746094 92.148437-59.238281 92.367187-114.261719h-16c-.191406 47.488281-33.328124 88.472656-79.71875 98.617188zm0 0"/><path d="m320.039062 432.03125h16v16h-16zm0 0"/></svg>