<?xml version="1.0" encoding="iso-8859-1"?>
<!-- Generator: Adobe Illustrator 19.0.0, SVG Export Plug-In . SVG Version: 6.00 Build 0)  -->
<svg version="1.1" id="Capa_1" xmlns="http://www.w3.org/2000/svg" xmlns:xlink="http://www.w3.org/1999/xlink" x="0px" y="0px"
	 viewBox="0 0 480.013 480.013" style="enable-background:new 0 0 480.013 480.013;" xml:space="preserve">
<g>
	<g>
		<path d="M477.67,226.41L353.39,102.154l52.472-56.648c3.062-3.186,2.961-8.25-0.225-11.311c-3.186-3.062-8.25-2.961-11.311,0.225
			c-0.065,0.068-0.129,0.137-0.192,0.207l-57.6,62.192l-55.896,55.888c-3.123,3.124-3.123,8.188,0,11.312l3.808,3.816
			l-22.048,20.944c-1.489,1.41-3.462,2.195-5.512,2.192h-32.8c-0.844,0.036-1.685,0.116-2.52,0.24l-26.632-30.752l4.44-4.44
			c3.123-3.124,3.123-8.188,0-11.312l-55.896-55.84l-49.6-54.16c-2.982-3.261-8.043-3.486-11.304-0.504
			c-3.261,2.982-3.486,8.043-0.504,11.304l44.544,48.656L2.342,218.41c-3.123,3.124-3.123,8.188,0,11.312l56,56
			c3.124,3.123,8.188,3.123,11.312,0l2.344-2.344l35.432,35.432l-5.384,5.104c-10.447,9.768-10.998,26.155-1.23,36.602
			c0.396,0.424,0.806,0.834,1.23,1.23c5.231,4.914,12.15,7.632,19.328,7.592h0.112c0.07,7.076,3.029,13.816,8.192,18.656
			c5.231,4.91,12.146,7.624,19.32,7.584h0.12c0.064,7.073,3.021,13.812,8.184,18.648c5.231,4.91,12.146,7.624,19.32,7.584h0.112
			c0.067,7.077,3.027,13.818,8.192,18.656c10.897,10.108,27.743,10.108,38.64,0l6.88-6.528l6.464,6.616
			c5.202,4.868,12.076,7.551,19.2,7.496c15.067,0.027,27.592-11.597,28.688-26.624c7.32-0.118,14.31-3.065,19.504-8.224
			c5.182-4.853,8.144-11.621,8.192-18.72c7.451-0.031,14.607-2.914,20-8.056c5.149-4.829,8.104-11.55,8.184-18.608
			c0.072,0,0.136,0,0.208,0c7.058,0.048,13.865-2.615,19.016-7.44c5.154-4.811,8.085-11.542,8.096-18.592
			c-0.007-7.21-3.005-14.093-8.28-19.008l-0.168-0.168l40.88-38.816l9.928,9.928c3.124,3.123,8.188,3.123,11.312,0l56-56
			C480.793,234.598,480.793,229.534,477.67,226.41z M63.998,268.754L19.31,224.066l118.4-118.4l44.688,44.696L63.998,268.754z
			 M129.662,350.162c-4.683,4.342-11.922,4.339-16.6-0.008c-4.036-3.672-4.331-9.921-0.659-13.957
			c0.209-0.23,0.429-0.45,0.659-0.659l32.224-30.6c4.68-4.354,11.928-4.354,16.608,0c4.038,3.676,4.332,9.93,0.656,13.968
			c-0.208,0.229-0.427,0.448-0.656,0.656L129.662,350.162z M157.294,376.386c-4.713,4.27-11.895,4.27-16.608,0
			c-4.038-3.676-4.332-9.93-0.656-13.968c0.208-0.229,0.427-0.447,0.656-0.656l32.224-30.592c4.68-4.354,11.928-4.354,16.608,0
			c4.036,3.672,4.331,9.921,0.659,13.957c-0.209,0.23-0.429,0.45-0.659,0.659L157.294,376.386z M184.918,402.61
			c-4.68,4.354-11.928,4.354-16.608,0c-4.038-3.676-4.332-9.93-0.656-13.968c0.208-0.229,0.427-0.447,0.656-0.656l32.224-30.6
			c4.684-4.351,11.932-4.351,16.616,0c4.038,3.689,4.321,9.954,0.632,13.992c-0.201,0.22-0.412,0.431-0.632,0.632L184.918,402.61z
			 M212.542,428.866c-4.677,4.361-11.931,4.361-16.608,0c-4.036-3.672-4.331-9.921-0.659-13.957c0.209-0.23,0.429-0.45,0.659-0.659
			l32.232-30.616c4.709-4.272,11.891-4.272,16.6,0c4.038,3.676,4.332,9.93,0.656,13.968c-0.208,0.229-0.427,0.448-0.656,0.656
			L212.542,428.866z M264.798,428.634l0.016,0.032c-4.593,4.461-11.834,4.673-16.68,0.488l-6.096-6.232l13.744-13.048
			c1.134-1.102,2.17-2.302,3.096-3.584l7.616,7.616c1.633,1.508,2.544,3.642,2.504,5.864
			C268.841,423.167,267.328,426.36,264.798,428.634z M348.902,348.802c-4.668,4.248-11.829,4.154-16.384-0.216l-24.68-23.424
			c-3.206-3.049-8.275-2.922-11.324,0.284c-3.049,3.205-2.921,8.275,0.284,11.324l24.672,23.432c2.029,1.888,3.187,4.532,3.2,7.304
			c-0.086,3.043-1.472,5.903-3.808,7.856c-4.677,4.361-11.931,4.361-16.608,0l-22.608-21.464c-3.206-3.042-8.27-2.909-11.312,0.296
			s-2.909,8.27,0.296,11.312l22.608,21.464c2.03,1.892,3.188,4.538,3.2,7.312c-0.087,3.043-1.473,5.903-3.808,7.856
			c-3.958,4.235-10.6,4.459-14.835,0.5c-0.08-0.075-0.159-0.151-0.237-0.228l-8-8l-5.904-5.904c-0.557-6.293-3.404-12.162-8-16.496
			c-5.257-4.938-12.22-7.652-19.432-7.576c-0.064-7.076-3.021-13.817-8.184-18.656c-5.262-4.935-12.226-7.649-19.44-7.576
			c-0.067-7.074-3.027-13.813-8.192-18.648c-5.26-4.934-12.221-7.647-19.432-7.576c-0.067-7.077-3.027-13.818-8.192-18.656
			c-10.898-10.104-27.742-10.104-38.64,0l-15.2,14.464l-35.632-35.72l100.264-100.264l23.064,26.664l-30.272,28.752
			c-8.322,7.816-8.732,20.898-0.916,29.22c0.296,0.315,0.601,0.62,0.916,0.916c8.326,7.743,21.126,8.039,29.8,0.688l35.304-20.8
			c3.122-1.839,7.09-1.35,9.672,1.192l70.568,69.6c0.394,0.846,0.936,1.616,1.6,2.272l19.024,18.072l5.472,5.392l0.104-0.104
			l0.776,0.72c2.078,1.902,3.272,4.583,3.296,7.4C351.974,344.45,350.858,346.992,348.902,348.802z M347.998,311.482l-85.6-84.472
			c-7.748-7.64-19.667-9.111-29.04-3.584l-36,21.2l-1.448,1.096c-2.427,2.165-6.093,2.165-8.52,0
			c-1.917-1.746-2.056-4.716-0.31-6.634c0.098-0.108,0.202-0.212,0.31-0.31l31.2-29.6c1.481-1.418,3.453-2.209,5.504-2.208h32.8
			c6.151,0.011,12.07-2.347,16.528-6.584l22.232-21.12l92.904,93.72L347.998,311.482z M415.998,276.754l-118.4-118.4l44.696-44.688
			l118.392,118.4L415.998,276.754z"/>
	</g>
</g>
<g>
	<g>
		<circle cx="63.998" cy="224.066" r="16"/>
	</g>
</g>
<g>
	<g>
		<circle cx="415.998" cy="232.066" r="16"/>
	</g>
</g>
<g>
</g>
<g>
</g>
<g>
</g>
<g>
</g>
<g>
</g>
<g>
</g>
<g>
</g>
<g>
</g>
<g>
</g>
<g>
</g>
<g>
</g>
<g>
</g>
<g>
</g>
<g>
</g>
<g>
</g>
</svg>
