<svg height="480pt" viewBox="0 -16 480 480" width="480pt" xmlns="http://www.w3.org/2000/svg"><path d="m200 144c0 22.089844 17.910156 40 40 40s40-17.910156 40-40c0-22.09375-17.910156-40-40-40-22.082031.023438-39.972656 17.917969-40 40zm64 0c0 13.253906-10.746094 24-24 24s-24-10.746094-24-24c0-13.257812 10.746094-24 24-24s24 10.742188 24 24zm0 0"/><path d="m224 272h-96c-4.417969 0-8 3.578125-8 8v80c0 4.417969 3.582031 8 8 8h96c4.417969 0 8-3.582031 8-8v-80c0-4.421875-3.582031-8-8-8zm-8 40h-32v-24h32zm-48-24v24h-32v-24zm-32 40h32v24h-32zm48 24v-24h32v24zm0 0"/><path d="m304 272c-13.253906 0-24 10.742188-24 24 0 13.253906 10.746094 24 24 24s24-10.746094 24-24c0-13.257812-10.746094-24-24-24zm0 32c-4.417969 0-8-3.582031-8-8 0-4.421875 3.582031-8 8-8s8 3.578125 8 8c0 4.417969-3.582031 8-8 8zm0 0"/><path d="m472 16h-212.6875l-13.65625-13.65625c-3.125-3.125-8.1875-3.125-11.3125 0l-13.65625 13.65625h-212.6875c-4.417969 0-8 3.578125-8 8v176c0 4.417969 3.582031 8 8 8h8v232c0 4.417969 3.582031 8 8 8h432c4.417969 0 8-3.582031 8-8v-232h8c4.417969 0 8-3.582031 8-8v-176c0-4.421875-3.582031-8-8-8zm-84.6875 176-141.65625-141.65625c-3.125-3.125-8.1875-3.125-11.3125 0l-141.65625 141.65625h-25.375l160-160h25.375l160 160zm-22.625 0h-249.375l124.6875-124.691406zm-348.6875-160h188.6875l-160 160h-28.6875zm16 176h56v224h-56zm232 224v-136c0-22.09375 17.910156-40 40-40s40 17.90625 40 40v40h-16v16h16v80zm96 0v-136c0-30.929688-25.070312-56-56-56s-56 25.070312-56 56v136h-144v-224h272v224zm88 0h-56v-224h56zm16-240h-28.6875l-160-160h188.6875zm0 0"/></svg>