<svg height="480pt" viewBox="-128 0 480 480.00012" width="480pt" xmlns="http://www.w3.org/2000/svg"><path d="m221.941406 178.648438-68.34375-75.945313 45.597656-91.128906c1.242188-2.484375 1.105469-5.4375-.363281-7.800781-1.46875-2.359376-4.054687-3.789063-6.835937-3.773438h-156c-2.726563 0-5.261719 1.386719-6.734375 3.679688-1.472657 2.292968-1.675781 5.179687-.539063 7.65625l41.808594 91.199218-68.480469 76.089844c-1.9531248 2.171875-2.566406 5.242188-1.597656 8l76.191406 213.375h-4.648437c-4.417969 0-8 3.582031-8 8v32c0 4.417969 3.582031 8 8 8h17.757812l6.480469 25.945312c.894531 3.558594 4.09375 6.054688 7.761719 6.054688h16c3.667968 0 6.867187-2.496094 7.757812-6.054688l6.480469-25.945312h17.761719c4.417968 0 8-3.582031 8-8v-32c0-4.417969-3.582032-8-8-8h-4.648438l76.175782-213.3125c.988281-2.765625.382812-5.855469-1.582032-8.039062zm-173.472656-162.648438h130.582031l-40 80h-14.109375l26.253906-52.425781-14.398437-7.148438-29.746094 59.574219h-14.109375l26.253906-52.425781-14.320312-7.148438-24.527344 49.054688zm65.277344 448h-3.503906l-4-16h11.503906zm30.25-32h-64v-16h64zm-13.601563-32h-36.71875l-76.535156-214.191406 41.277344-45.871094-17.933594 49.328125 15.023437 5.46875 30.089844-82.734375h18.398438v88h16v-88h18.398437l30.089844 82.734375 15.023437-5.46875-17.910156-49.328125 41.277344 45.871094zm0 0"/></svg>