<?xml version="1.0" encoding="utf-8"?>
<!-- Generator: Adobe Illustrator 19.0.0, SVG Export Plug-In . SVG Version: 6.00 Build 0)  -->
<svg version="1.1" id="圖層_1" xmlns="http://www.w3.org/2000/svg" xmlns:xlink="http://www.w3.org/1999/xlink" x="0px" y="0px"
	 viewBox="0 0 80 80" style="enable-background:new 0 0 80 80;" xml:space="preserve">
<style type="text/css">
	.st0{fill:#FFFFFF;}
</style>
<g id="XMLID_467_">
	<g id="XMLID_504_">
		<path id="XMLID_506_" class="st0" d="M75.9,35.1c0-1.7-1.3-3-3-3c-4.5,0-8.9,0-13.4,0c-1.7,0-3,1.3-3,3c0,9.7,0,19.4,0,29.2
			c0,1.8,1.3,3,3,3c4.4,0,8.8,0,13.3,0c1.9,0,3.1-1.2,3.1-3.1c0-4.8,0-9.7,0-14.5C75.9,44.8,75.9,39.9,75.9,35.1z M64.2,33.4
			c0.1-0.1,0.2-0.1,0.3-0.2c0.6,0,1.2,0,1.7,0c0.4,0,0.8,0,1.2,0c0.1,0,0.3,0,0.4,0c0.1,0,0.2,0,0.2,0.1c0,0,0.1,0.1,0.1,0.1
			c-0.1,0-0.1,0.1-0.2,0.1c0,0-0.1,0-0.1,0c-0.6,0-1.1,0-1.7,0c-0.3,0-0.6,0-0.9,0c-0.3,0-0.6,0-0.9,0c0,0-0.1,0-0.1,0
			c0,0-0.1,0-0.1-0.1C64.2,33.5,64.2,33.4,64.2,33.4C64.2,33.4,64.2,33.4,64.2,33.4z M66.2,65.9c-0.5,0-0.9-0.4-0.9-1
			c0-0.5,0.5-1,1-0.9c0.5,0,0.9,0.5,0.9,1C67.1,65.5,66.7,65.9,66.2,65.9z M73.7,62c0,0.7-0.1,0.8-0.8,0.8c-4.5,0-9,0-13.4,0
			c-0.6,0-0.8-0.1-0.8-0.8c0-8.9,0-17.7,0-26.6c0-0.7,0.1-0.8,0.8-0.8c4.5,0,9,0,13.4,0c0.7,0,0.8,0.1,0.8,0.8c0,4.4,0,8.9,0,13.3
			C73.7,53.2,73.7,57.6,73.7,62z"/>
	</g>
	<path id="XMLID_503_" class="st0" d="M54.5,46.5c-3.6,0-7.3,0-10.9,0c-0.7,0-1.6-0.3-2,0.7c-0.1,0.2-0.5,0.2-0.8,0.2
		c-2.3,0-4.6,0-6.9,0c-0.3,0-0.9-0.1-1-0.3c-0.3-0.7-0.8-0.6-1.3-0.6c-8.8,0-17.5,0-26.3,0c-0.4,0-0.8,0-1.1,0.1
		c-0.1,2.1,0.1,2.4,2,2.8c0.6,0.1,1.1,0.2,1.7,0.2c15.5,0,31.1,0,46.6,0V46.5z"/>
	<path id="XMLID_501_" class="st0" d="M14.5,14.9c15.2,0,30.3,0,45.6,0c0,5,0,10.1,0,15.1h2.2c0-5.2,0-10.4,0-15.6
		c0-1.5-0.3-1.8-1.8-1.8c-15.4,0-30.9,0-46.3,0c-1.5,0-1.8,0.3-1.8,1.8c0,10,0,19.9,0,29.9c0,0.4,0,0.8,0,1.2c14.1,0,28.1,0,42.2,0
		v-2.1c-13.3,0-26.6,0-40,0C14.5,34,14.5,24.5,14.5,14.9z"/>
</g>
</svg>
