<?xml version="1.0" encoding="utf-8"?>
<!-- Generator: Adobe Illustrator 19.0.0, SVG Export Plug-In . SVG Version: 6.00 Build 0)  -->
<svg version="1.1" id="圖層_1" xmlns="http://www.w3.org/2000/svg" xmlns:xlink="http://www.w3.org/1999/xlink" x="0px" y="0px"
	 viewBox="0 0 80 80" style="enable-background:new 0 0 80 80;" xml:space="preserve">
<style type="text/css">
	.st0{fill:#FFFFFF;}
	.st1{fill:none;stroke:#FFFFFF;stroke-width:2;stroke-miterlimit:10;}
</style>
<g id="XMLID_258_">
	<path id="XMLID_274_" class="st0" d="M58.8,64.6c1.5-1.5,2.9-2.9,4.4-4.4c0,0,0.1,0.1,0.2,0.1c1.9,1.9,3.7,3.7,5.6,5.6
		c0.9,0.9,1.3,2,0.9,3.2c-0.4,1.2-1.2,1.9-2.4,2.2c-1,0.2-2,0-2.8-0.7C62.7,68.7,60.8,66.7,58.8,64.6z"/>
	<path id="XMLID_269_" class="st1" d="M48,63c-7.1,0-12.8-5.5-13.4-12.5l0,0c0-0.4-0.1-0.8-0.1-1.2c0,0,0,0,0,0c0-0.4,0-0.8,0.1-1.3
		c0-0.2,0-0.3,0.1-0.4c0-0.3,0.1-0.5,0.1-0.8c0-0.2,0.1-0.4,0.1-0.5c0.1-0.2,0.1-0.4,0.2-0.6c0.1-0.2,0.1-0.4,0.2-0.6
		c0.1-0.2,0.1-0.3,0.2-0.5c0.1-0.2,0.2-0.4,0.3-0.7c0-0.1,0.1-0.2,0.2-0.3c0.4-0.9,1-1.8,1.6-2.5v0C40,38,43.8,36,48,36
		c7.4,0,13.5,6,13.4,13.4C61.4,56.9,55.4,63,48,63z"/>
	<path id="XMLID_259_" class="st0" d="M31.3,50.6l0-0.1c0-0.4-0.1-0.8,0-1.1c0-0.5,0-1,0.1-1.6l0-0.1c0.1-0.5,0.1-0.9,0.2-1.4H12.5
		V22.4h12.9h2h12.1v7v5.8c2.6-1.6,5.6-2.4,8.6-2.4c1.1,0,2.1,0.1,3.1,0.3V8.5H25.3v12H10v36.4h23C32,55,31.4,52.8,31.3,50.6z
		 M27.3,10.1h21.8v19.3h-7.3v-8.9H27.3V10.1z"/>
</g>
</svg>
