<?xml version="1.0" encoding="utf-8"?>
<!-- Generator: Adobe Illustrator 19.0.0, SVG Export Plug-In . SVG Version: 6.00 Build 0)  -->
<svg version="1.1" id="圖層_1" xmlns="http://www.w3.org/2000/svg" xmlns:xlink="http://www.w3.org/1999/xlink" x="0px" y="0px"
	 viewBox="0 0 80 80" style="enable-background:new 0 0 80 80;" xml:space="preserve">
<style type="text/css">
	.st0{fill:#FFFFFF;}
</style>
<g id="XMLID_570_">
	<path id="XMLID_577_" class="st0" d="M35,36.3c-0.2-0.1-0.5-0.1-0.7-0.2s-0.6,0-1,0h-1.1v3.3h1c0.5,0,0.9,0,1.3-0.1
		s0.6-0.2,0.9-0.3c0.2-0.2,0.4-0.4,0.5-0.6c0.1-0.2,0.2-0.5,0.2-0.8c0-0.3-0.1-0.6-0.2-0.8S35.3,36.4,35,36.3z"/>
	<path id="XMLID_571_" class="st0" d="M73,37.2l-4.1-5.2l0.8-6.6l-5.7-3.3l-1.6-6.4l-6.5-1L52,9.4l-6.5,1.4L40,7.1l-5.5,3.7L28,9.4
		l-3.8,5.4l-6.5,1l-1.6,6.4l-5.7,3.3l0.8,6.6L7,37.2l3.1,5.8l-2,6.3l5,4.3l0.4,6.6l6.2,2.2l2.8,6l6.6-0.2l4.7,4.6l6.1-2.6l6.1,2.6
		l4.7-4.6l6.6,0.2l2.8-6l6.2-2.2l0.4-6.6l5-4.3l-2-6.3L73,37.2z M26.8,36.2h-5.6v2.3h5.2v2.4h-5.2v5.2H18V33.9h8.8V36.2z M36.9,46.1
		l-3.3-4.5h-1.5v4.5h-3.1V33.9h5.3c0.7,0,1.3,0,1.9,0.1c0.5,0.1,1,0.3,1.5,0.5c0.5,0.3,0.8,0.6,1.1,1.1c0.3,0.4,0.4,1,0.4,1.6
		c0,0.9-0.2,1.6-0.6,2.2c-0.4,0.6-1,1-1.8,1.4l4.1,5.2H36.9z M51,36.2h-5.7v2.1h5.3v2.4h-5.3v3H51v2.4h-8.9V33.9H51V36.2z
		 M62.5,36.2h-5.7v2.1h5.3v2.4h-5.3v3h5.7v2.4h-8.9V33.9h8.9V36.2z"/>
</g>
</svg>
