<?xml version="1.0" encoding="utf-8"?>
<!-- Generator: Adobe Illustrator 16.0.0, SVG Export Plug-In . SVG Version: 6.00 Build 0)  -->
<!DOCTYPE svg PUBLIC "-//W3C//DTD SVG 1.1//EN" "http://www.w3.org/Graphics/SVG/1.1/DTD/svg11.dtd">
<svg version="1.1" id="email" xmlns="http://www.w3.org/2000/svg" xmlns:xlink="http://www.w3.org/1999/xlink" x="0px" y="0px"
	 width="32px" height="32px" viewBox="0 0 32 32" enable-background="new 0 0 32 32" xml:space="preserve">
<g>
	<path fill="#9F9F9F" d="M31,18.652v-5.008c0-1.883-0.009-3.49-0.016-4.141l-6.231,4.371L31,18.652z"/>
	<path fill="#9F9F9F" d="M1.735,18.469v-5.011c0-1.881,0.01-3.488,0.015-4.14l6.231,4.37L1.735,18.469z"/>
	<polygon fill="#9F9F9F" points="16.4,16.435 29.257,7.417 4.096,7.417 3.537,7.412 	"/>
	<path fill="#9F9F9F" d="M22.09,15.102l-5.225,3.667c-0.134,0.093-0.303,0.138-0.465,0.138c-0.168,0-0.332-0.045-0.473-0.138
		l-5.21-3.659l-8.75,6.694c-0.071,0.054-0.15,0.094-0.233,0.119v0.096l0.021,5.535h29.209l0.021-5.535v-0.114L22.09,15.102z"/>
</g>
</svg>
