<?xml version="1.0" encoding="utf-8"?>
<!-- Generator: Adobe Illustrator 16.0.0, SVG Export Plug-In . SVG Version: 6.00 Build 0)  -->
<!DOCTYPE svg PUBLIC "-//W3C//DTD SVG 1.1//EN" "http://www.w3.org/Graphics/SVG/1.1/DTD/svg11.dtd">
<svg version="1.1" id="ios" xmlns="http://www.w3.org/2000/svg" xmlns:xlink="http://www.w3.org/1999/xlink" x="0px" y="0px"
	 width="32px" height="32px" viewBox="0 0 32 32" enable-background="new 0 0 32 32" xml:space="preserve">
<path fill-rule="evenodd" clip-rule="evenodd" fill="#9F9F9F" d="M26.184,10.819c-1.311-1.633-3.148-2.579-4.885-2.579
	c-2.297,0-3.268,1.092-4.859,1.092c-1.643,0-2.891-1.089-4.877-1.089c-1.951,0-4.026,1.185-5.34,3.209
	C4.372,14.3,4.685,19.658,7.685,24.225c1.073,1.633,2.508,3.469,4.38,3.486c1.666,0.016,2.138-1.062,4.397-1.074
	c2.26-0.012,2.686,1.086,4.354,1.07c1.873-0.018,3.385-2.049,4.457-3.684c0.77-1.17,1.055-1.76,1.652-3.084
	C22.588,19.301,21.891,13.171,26.184,10.819z M19.557,6.416c0.834-1.07,1.469-2.582,1.238-4.128
	c-1.363,0.095-2.957,0.961-3.889,2.092c-0.843,1.026-1.542,2.547-1.27,4.027C17.123,8.452,18.664,7.563,19.557,6.416z"/>
</svg>
