<?xml version="1.0" encoding="utf-8"?>
<!-- Generator: Adobe Illustrator 16.0.0, SVG Export Plug-In . SVG Version: 6.00 Build 0)  -->
<!DOCTYPE svg PUBLIC "-//W3C//DTD SVG 1.1//EN" "http://www.w3.org/Graphics/SVG/1.1/DTD/svg11.dtd">
<svg version="1.1" id="logo" xmlns="http://www.w3.org/2000/svg" xmlns:xlink="http://www.w3.org/1999/xlink" x="0px" y="0px"
	 width="256px" height="256px" viewBox="0 0 256 256" enable-background="new 0 0 256 256" xml:space="preserve">
<path fill="#ADACAD" d="M128.003,4.559c-53.587,0-97.028,43.44-97.028,97.025c0,22.016,7.334,42.321,19.688,58.599
	c17.719,23.349,77.339,91.259,77.339,91.259s59.618-67.91,77.334-91.259c12.354-16.276,19.688-36.583,19.688-58.599
	C225.026,47.999,181.586,4.559,128.003,4.559z M128.194,174.15c-40.812,0-73.897-33.087-73.897-73.899
	c0-40.815,33.087-73.9,73.897-73.9c40.818,0,73.9,33.087,73.9,73.9C202.095,141.063,169.008,174.15,128.194,174.15z"/>
<path fill="#ADACAD" d="M181.647,52.217c0,0,0.856,5.159-1.615,8.68c-2.463,3.52-8.93,12.955-11.18,15.734
	c-2.248,2.771-17.295,20.496-33.58,32.739c6.645-14.602,6.129-27.551,6.129-27.551L181.647,52.217z"/>
<path fill="#ADACAD" d="M105.252,110.391c-1.179-2.17-8.14-6.377-13.623-5.753c-5.03,0.57-18.167,7.097-22.26,13.934
	c-1.696-0.376-4.26-1.365-4.363-3.927c0-2.458-5.422-3.599-4.893,0.958c0.444,3.862,2.989,8.203,7.864,8.136
	c-0.002,7.19,6.431,16.011,15.687,16.948c10.752,1.095,29.685-11.448,29.685-11.448l0.283-14.215
	C110.842,114.185,106.427,112.565,105.252,110.391z M93.36,130.881c-6.215,3.354-13.128,2.582-15.456-1.721
	c-2.328-4.305,0.812-10.514,7.026-13.872c6.209-3.353,13.129-2.587,15.457,1.716C102.716,121.312,99.574,127.517,93.36,130.881z"/>
<path fill="#ADACAD" d="M117.649,101.655c1.533-2.666,4.408-4.47,7.701-4.47c4.889,0,8.875,3.98,8.875,8.873
	c0,0.815-0.119,1.599-0.318,2.351c2.211-6.385,4.006-14.624,4.294-17.695l2.419-58.801c0,0-6.16,3.335-7.729,8.24
	c-1.566,4.904-15.221,49.003-15.043,54.534C117.881,95.77,117.79,98.257,117.649,101.655z"/>
<path fill="#ADACAD" d="M151.452,144.985c-0.118-2.584-0.514-4.885-1.135-6.467c-2.121-5.424-7.119-12.926-14.885-13.039
	c-4.603-0.073-6.317-0.354-6.771-2.926c-0.449-2.569,1.198-6.009,2.147-7.361c0.889-1.262,1.787-3.234,2.635-5.533
	c-1.383,3.101-4.493,5.267-8.102,5.267c-3.535,0-6.597-2.079-8.021-5.082c-0.287,7.949-0.534,17.753-0.254,26.573
	c0,0-0.123,27.759-0.123,28.834c2.693,0,8.699,0,10.736,0c0-1.31-0.117-21.699,0-22.922v-0.006l0,0
	c0.475-4.979,2.795-6.617,5.994-6.975c4.088-0.479,7.145,2.68,7.95,9.689v17.61v2.603l9.86,3.336v-23.549c0-0.037,0-0.055,0-0.055
	L151.452,144.985L151.452,144.985z"/>
<circle fill="#ADACAD" cx="125.347" cy="106.058" r="5.804"/>
</svg>
