<svg xmlns="http://www.w3.org/2000/svg" xmlns:xlink="http://www.w3.org/1999/xlink" version="1.1" id="Capa_1" x="0px" y="0px" viewBox="0 0 504.025 504.025" style="enable-background:new 0 0 504.025 504.025;" xml:space="preserve">
<g>
	<g>
		<g>
			<path d="M252.012,151.082c18.534-0.02,33.554-15.04,33.574-33.574c0-18.542-15.031-33.574-33.574-33.574     s-33.574,15.031-33.574,33.574C218.438,136.05,233.47,151.082,252.012,151.082z M252.012,100.721     c9.267,0.011,16.776,7.52,16.787,16.787c0,9.271-7.516,16.787-16.787,16.787c-9.271,0-16.787-7.516-16.787-16.787     C235.225,108.237,242.741,100.721,252.012,100.721z" style="fill: rgb(255, 255, 255);"></path>
			<path d="M436.668,302.164h-33.574v-8.393c0-4.636-3.758-8.393-8.393-8.393s-8.393,3.758-8.393,8.393v8.393h-24.835     l-52.629-148.962c6.514-10.341,10.302-22.572,10.317-35.694c0-28.177-17.363-52.285-41.967-62.248V25.18     c0-13.907-11.274-25.18-25.18-25.18c-13.907,0-25.18,11.274-25.18,25.18v30.08c-24.604,9.963-41.967,34.071-41.967,62.248     c0,13.037,3.727,25.198,10.157,35.498l-52.637,149.157h-24.667v-8.393c0-4.636-3.758-8.393-8.393-8.393     c-4.636,0-8.393,3.758-8.393,8.393v8.393H67.357c-4.636,0-8.393,3.758-8.393,8.393s3.758,8.393,8.393,8.393h33.574v8.393     c-0.001,2.226,0.884,4.362,2.458,5.936c1.574,1.574,3.709,2.458,5.936,2.458c2.226,0.001,4.362-0.884,5.936-2.458     c1.574-1.574,2.458-3.709,2.458-5.936v-8.393h18.743L93.016,442.057c-0.578,1.634-0.635,3.406-0.164,5.074l14.184,50.361     c0.989,3.506,4.126,5.973,7.766,6.107c0.103,0.008,0.209,0.008,0.316,0.008c3.527-0.001,6.677-2.209,7.881-5.525l65.214-179.131     h23.269c3.457,9.779,12.779,16.787,23.742,16.787h33.574c10.963,0,20.284-7.008,23.742-16.787h23.15l65.33,179.549     c1.207,3.315,4.357,5.522,7.885,5.525c0.111,0,0.221,0,0.336-0.008c3.648-0.14,6.785-2.628,7.754-6.147l14.074-50.779     c0.456-1.656,0.396-3.412-0.172-5.033l-43.495-123.107h18.904v8.393c-0.001,2.226,0.884,4.362,2.458,5.936     c1.574,1.574,3.709,2.458,5.936,2.458c2.226,0.001,4.362-0.883,5.936-2.457c1.574-1.574,2.458-3.71,2.457-5.937v-8.393h33.574     c4.636,0,8.393-3.758,8.393-8.393S441.304,302.164,436.668,302.164z M243.619,25.18c0-4.636,3.758-8.393,8.393-8.393     c4.636,0,8.393,3.758,8.393,8.393v25.721c-2.752-0.343-5.549-0.541-8.393-0.541s-5.642,0.197-8.393,0.541V25.18z M252.012,67.148     c27.801,0.03,50.33,22.56,50.361,50.361c0,10.712-3.355,20.636-9.057,28.799c-0.015,0.017-0.033,0.03-0.048,0.047     c-0.398,0.443-0.726,0.93-1.016,1.435c-5.833,7.739-13.846,13.74-23.127,17.093c-0.167,0.049-0.335,0.094-0.501,0.154     c-0.063,0.023-0.122,0.053-0.185,0.078c-5.15,1.777-10.673,2.755-16.426,2.755c-5.793,0-11.352-0.991-16.532-2.791     c-0.161-0.062-0.326-0.114-0.491-0.166c-9.481-3.405-17.642-9.571-23.518-17.531c-0.18-0.29-0.379-0.567-0.592-0.832     c-5.806-8.208-9.229-18.221-9.229-29.04C201.652,89.695,224.199,67.148,252.012,67.148z M116.135,467.877l-6.406-22.738     l46.298-131.193c0.165-0.373,0.3-0.762,0.41-1.161l51.151-144.945c4.3,3.798,9.09,7.051,14.264,9.657L116.135,467.877z      M268.799,318.951h-33.574c-4.636,0-8.393-3.758-8.393-8.393s3.758-8.393,8.393-8.393h33.574c4.636,0,8.393,3.758,8.393,8.393     S273.435,318.951,268.799,318.951z M292.541,302.164c-3.457-9.779-12.779-16.787-23.742-16.787h-33.574     c-10.963,0-20.284,7.008-23.742,16.787h-17.158l43.345-119.059c4.623,1.006,9.418,1.551,14.342,1.551     c4.893-0.006,9.658-0.547,14.253-1.545l43.318,119.054H292.541z M387.828,468.107l-58.182-159.904     c-0.103-0.352-0.227-0.695-0.373-1.026l-47.18-129.668c5.132-2.581,9.885-5.799,14.161-9.552l97.931,277.2L387.828,468.107z" style="fill: rgb(255, 255, 255);"></path>
		</g>
	</g>
</g>
<g>
</g>
<g>
</g>
<g>
</g>
<g>
</g>
<g>
</g>
<g>
</g>
<g>
</g>
<g>
</g>
<g>
</g>
<g>
</g>
<g>
</g>
<g>
</g>
<g>
</g>
<g>
</g>
<g>
</g>
</svg>